<?xml version="1.0" encoding="utf-8"?>
<!-- Generator: Adobe Illustrator 27.5.0, SVG Export Plug-In . SVG Version: 6.00 Build 0)  -->
<svg version="1.1" xmlns="http://www.w3.org/2000/svg" xmlns:xlink="http://www.w3.org/1999/xlink" x="0px" y="0px"
	 viewBox="0 0 500 500" style="enable-background:new 0 0 500 500;" xml:space="preserve">
<g id="Floor">
	<ellipse id="Floor_4_" style="fill:#F5F5F5;" cx="250" cy="353.974" rx="231.528" ry="133.673"/>
</g>
<g id="Shadows">
	<path id="Shadow_19_" style="fill:#E0E0E0;" d="M34.611,337.656l240.707,138.972c2.583,1.491,6.77,1.491,9.353,0l126.574-73.078
		c2.583-1.491,2.583-3.909,0-5.4L170.538,259.178c-2.583-1.491-6.77-1.491-9.353,0L34.611,332.256
		C32.028,333.747,32.028,336.164,34.611,337.656z"/>
	<ellipse id="Shadow_27_" style="fill:#E0E0E0;" cx="409.493" cy="340.719" rx="64.232" ry="37.084"/>
</g>
<g id="Plants">
	<g id="Plants_13_">
		<g id="XMLID_5600_">
			<g id="XMLID_5603_">
				<path id="XMLID_5608_" style="fill:#E0E0E0;" d="M72.015,314.48c0,0,1.326-17.421-2.266-34.126
					c-3.592-16.705-12.31-29.555-23.053-34.575c-10.743-5.02-23.497,1.819-14.27,13.248c9.227,11.428,28.374,31.813,28.266,61.599
					L72.015,314.48z"/>
			</g>
			<g id="XMLID_5601_">
				<path id="XMLID_5602_" style="fill:#FFFFFF;" d="M66.541,313.866c0.043,0.008,0.086,0.012,0.13,0.01
					c0.349-0.009,0.624-0.299,0.613-0.648c-1.004-36.483-13.155-54.75-27.195-64.039c-0.288-0.194-0.682-0.112-0.875,0.178
					c-0.192,0.291-0.113,0.683,0.178,0.875c13.85,9.164,25.639,27.057,26.63,63.021C66.031,313.566,66.253,313.814,66.541,313.866z"
					/>
			</g>
		</g>
		<g id="XMLID_5597_">
			<g id="XMLID_5598_">
				<path id="XMLID_5599_" style="fill:#EBEBEB;" d="M17.685,281.698c0.208,2.019,1.835,3.564,3.392,4.869
					c1.549,1.295,3.249,2.712,3.674,4.695c0.854,4.004-3.889,7.698-2.864,11.66c0.431,1.661,1.83,2.918,3.343,3.729
					c1.253,0.684,2.614,1.125,3.93,1.679c0.656,0.198,1.316,0.361,1.973,0.477c1.945,0.335,3.989,0.904,5.381,2.408
					c2.188,2.376,1.91,6.025,2.688,9.161c0.934,3.756,3.164,5.957,8.277,7.743l17.497-9.92c4.365-4.445,5.9-12.046,1.884-17.212
					c-2.41-3.101-6.925-3.493-9.201-6.594c-2.042-2.783-0.859-6.8-2.114-10.015c-1.271-3.255-4.581-4.323-7.721-4.867
					c-3.235-0.561-6.474,0.749-9.541-0.37c-3.066-1.118-5.911-2.929-9.089-3.724c-3.091-0.773-6.592-0.496-9.161,1.538
					C18.592,278.097,17.497,279.867,17.685,281.698z"/>
			</g>
			<path style="fill:#FFFFFF;" d="M50.306,297.493c-0.028-0.074-0.075-0.137-0.137-0.188c-8.224-11.66-21.116-17.197-25.473-18.171
				c-0.243-0.052-0.489,0.1-0.545,0.346c-0.055,0.246,0.1,0.49,0.346,0.545c4.13,0.923,16.102,6.04,24.159,16.738
				c-11.441-3.676-19.98,1.682-20.069,1.739c-0.212,0.137-0.272,0.419-0.136,0.632c0.084,0.13,0.224,0.203,0.368,0.209
				c0.09,0.003,0.182-0.021,0.263-0.073c0.087-0.056,8.884-5.579,20.5-1.235c4.225,6.083,7.145,13.848,6.841,23.526
				c-0.008,0.24,0.171,0.442,0.405,0.468c0.012,0.001,0.025,0.002,0.037,0.002c0.251,0.008,0.463-0.19,0.47-0.442
				C57.648,311.671,54.645,303.718,50.306,297.493z"/>
		</g>
	</g>
	<g id="Plants_1_">
		<g id="XMLID_21_">
			<g id="XMLID_24_">
				<path id="XMLID_25_" style="fill:#E0E0E0;" d="M445.415,315.37c-0.161-12.129,0.064-23.321,6.22-40.567
					c5.166-14.472,18.434-29.071,27.397-28.452c8.347,0.576,10.196,10.833,2.689,19.958c-7.507,9.126-23.872,26.593-24.887,39.177
					l-3.197,14.302L445.415,315.37z"/>
			</g>
			<g id="XMLID_22_">
				<path id="XMLID_23_" style="fill:#FFFFFF;" d="M449.118,312.3c0.228-0.053,0.403-0.253,0.414-0.497
					c1.305-28.225,17.063-51.743,30.214-58.973c0.259-0.142,0.354-0.469,0.211-0.728c-0.141-0.258-0.462-0.36-0.728-0.211
					c-13.366,7.348-29.445,31.251-30.767,59.862c-0.014,0.295,0.215,0.546,0.51,0.56C449.022,312.316,449.071,312.311,449.118,312.3
					z"/>
			</g>
		</g>
		<g id="XMLID_16_">
			<g id="XMLID_19_">
				<path id="XMLID_20_" style="fill:#EBEBEB;" d="M456.716,321.528c0.512-4.257,4.41-11.771,11.564-18.608
					c7.915-7.563,18.722-12.187,20.553-17.381c2.199-6.239-3.318-9.571-12.438-7.62c-10.961,2.344-23.117,14.891-25.156,40.516
					L456.716,321.528z"/>
			</g>
			<g id="XMLID_17_">
				<path id="XMLID_18_" style="fill:#FFFFFF;" d="M454.264,317.539c0.198-0.048,0.359-0.208,0.4-0.423
					c4.192-22.393,19.162-32.413,26.491-34.582c0.284-0.084,0.445-0.382,0.362-0.666c-0.084-0.285-0.371-0.448-0.666-0.362
					c-8.105,2.399-22.962,12.556-27.241,35.413c-0.054,0.29,0.138,0.571,0.428,0.625
					C454.116,317.559,454.192,317.556,454.264,317.539z"/>
			</g>
		</g>
	</g>
</g>
<g id="Clouds">
	<g id="Clouds_3_">
		<g id="XMLID_5443_">
			<path id="XMLID_5444_" style="fill:#F0F0F0;" d="M428.711,92.713l6.641,3.835c-0.033-0.297-0.056-0.591-0.056-0.879v-1.924
				c0-3.424,2.404-4.812,5.369-3.1c1.201,0.693,2.306,1.792,3.2,3.077c0.486-4.305,3.864-5.909,7.966-3.541
				c4.436,2.561,8.032,8.79,8.032,13.913v2.879c0,1.327-0.246,2.444-0.68,3.335l5.516,3.185c1.645,0.95,2.978,3.259,2.978,5.158
				c0,1.899-1.333,2.669-2.978,1.72l-35.99-20.779c-1.645-0.95-2.978-3.259-2.978-5.159
				C425.733,92.533,427.066,91.763,428.711,92.713z"/>
		</g>
		<g id="XMLID_4531_">
			<path id="XMLID_5442_" style="fill:#F0F0F0;" d="M373.54,39.84l3.663,1.409v-8.071c0-6.398,5.103-7.932,10.644-4.733l0,0
				c5.541,3.199,10.033,10.979,10.033,17.377v1.172c1.257-0.501,2.88-0.307,4.656,0.718l0,0c3.987,2.302,7.22,7.901,7.22,12.504
				v0.533l5.108,2.949c2.626,1.516,4.754,5.203,4.754,8.235c0,3.032-2.128,4.261-4.754,2.745L373.54,50.82
				c-2.626-1.516-4.754-5.203-4.754-8.234C368.786,39.554,370.914,38.324,373.54,39.84z"/>
		</g>
	</g>
	<g id="Clouds_4_">
		<g id="XMLID_5450_">
			<path id="XMLID_5451_" style="fill:#F0F0F0;" d="M74.372,103.935l-6.641,3.834c0.033-0.297,0.056-0.591,0.056-0.879v-1.924
				c0-3.424-2.404-4.812-5.369-3.1c-1.201,0.693-2.306,1.792-3.2,3.077c-0.486-4.305-3.864-5.909-7.966-3.541
				c-4.436,2.561-8.032,8.79-8.032,13.913v2.879c0,1.327,0.245,2.444,0.68,3.335l-5.516,3.185c-1.645,0.95-2.978,3.259-2.978,5.158
				c0,1.899,1.333,2.669,2.978,1.719l35.99-20.779c1.645-0.95,2.978-3.259,2.978-5.159C77.35,103.755,76.017,102.985,74.372,103.935
				z"/>
		</g>
		<g id="XMLID_5445_">
			<path id="XMLID_5446_" style="fill:#F0F0F0;" d="M104.059,44.02l-3.664,1.409v-8.071c0-6.398-5.103-7.932-10.644-4.733l0,0
				c-5.541,3.199-10.032,10.979-10.032,17.377v1.172c-1.257-0.501-2.88-0.307-4.656,0.718l0,0c-3.987,2.302-7.22,7.901-7.22,12.504
				v0.533l-5.108,2.949c-2.626,1.516-4.754,5.203-4.754,8.235c0,3.032,2.128,4.261,4.754,2.745L104.059,55
				c2.626-1.516,4.754-5.203,4.754-8.235C108.813,43.733,106.684,42.504,104.059,44.02z"/>
		</g>
	</g>
</g>
<g id="Stars">
	<g id="Stars_1_">
		<g id="XMLID_5570_">
			<path id="XMLID_5572_" style="fill:#F0F0F0;" d="M111.257,82.33c0.43,0.415,0.443,1.099,0.028,1.53
				c-0.415,0.43-1.099,0.443-1.529,0.028c-0.43-0.415-0.443-1.1-0.028-1.53C110.143,81.928,110.827,81.916,111.257,82.33z"/>
			<path id="XMLID_5571_" style="fill:#F0F0F0;" d="M121.24,87.054c0.701,0.676,0.722,1.792,0.046,2.493
				c-0.676,0.701-1.792,0.722-2.493,0.046c-0.701-0.676-0.721-1.792-0.046-2.493C119.423,86.399,120.539,86.379,121.24,87.054z"/>
		</g>
		<g id="XMLID_5567_">
			<path id="XMLID_5569_" style="fill:#F0F0F0;" d="M443.964,34.841c0.554-0.223,1.184,0.045,1.408,0.599
				c0.223,0.554-0.045,1.184-0.599,1.408c-0.554,0.223-1.184-0.045-1.407-0.599C443.141,35.694,443.409,35.064,443.964,34.841z"/>
			<path id="XMLID_5568_" style="fill:#F0F0F0;" d="M452.354,27.66c0.903-0.364,1.931,0.074,2.294,0.977
				c0.364,0.903-0.073,1.931-0.977,2.295c-0.903,0.364-1.931-0.074-2.294-0.977C451.013,29.051,451.451,28.024,452.354,27.66z"/>
		</g>
		<g id="XMLID_5563_">
			<path id="XMLID_5566_" style="fill:#F0F0F0;" d="M388.929,150.764c0,0.974-0.789,1.763-1.763,1.763s-1.764-0.789-1.764-1.763
				c0-0.974,0.79-1.763,1.764-1.763S388.929,149.79,388.929,150.764z"/>
			<path id="XMLID_5565_" style="fill:#F0F0F0;" d="M383.66,155.582c0,0.581-0.471,1.052-1.052,1.052
				c-0.581,0-1.052-0.471-1.052-1.052s0.471-1.053,1.052-1.053C383.188,154.53,383.66,155.001,383.66,155.582z"/>
			<path id="XMLID_5564_" style="fill:#F0F0F0;" d="M380.675,149.001c0,0.469-0.38,0.849-0.849,0.849
				c-0.469,0-0.849-0.38-0.849-0.849c0-0.469,0.38-0.849,0.849-0.849C380.295,148.152,380.675,148.532,380.675,149.001z"/>
		</g>
		<g id="XMLID_5560_">
			<path id="XMLID_5562_" style="fill:#E0E0E0;" d="M277.855,104.264c0.635,0.368,0.852,1.18,0.484,1.815
				c-0.367,0.635-1.18,0.852-1.815,0.484c-0.635-0.368-0.852-1.18-0.484-1.815C276.408,104.114,277.221,103.897,277.855,104.264z"/>
			<path id="XMLID_5561_" style="fill:#F0F0F0;" d="M281.163,99.874c0.371,0.214,0.497,0.688,0.283,1.059
				c-0.215,0.371-0.689,0.497-1.059,0.283c-0.37-0.214-0.497-0.688-0.282-1.059C280.319,99.786,280.793,99.66,281.163,99.874z"/>
		</g>
		<g id="XMLID_5557_">
			<path id="XMLID_5559_" style="fill:#E0E0E0;" d="M293.011,186.866c0.635,0.368,0.852,1.18,0.484,1.815
				c-0.367,0.635-1.18,0.852-1.815,0.484c-0.635-0.367-0.852-1.18-0.484-1.815C291.564,186.715,292.376,186.499,293.011,186.866z"/>
			<path id="XMLID_1_" style="fill:#E0E0E0;" d="M373.011,89.866c0.635,0.368,0.852,1.18,0.484,1.815
				c-0.367,0.635-1.18,0.852-1.815,0.484c-0.635-0.368-0.852-1.18-0.484-1.815C371.564,89.715,372.376,89.499,373.011,89.866z"/>
			<path id="XMLID_5558_" style="fill:#F0F0F0;" d="M296.319,182.476c0.371,0.214,0.497,0.689,0.283,1.059
				c-0.215,0.37-0.689,0.497-1.059,0.283c-0.37-0.214-0.497-0.688-0.282-1.059C295.474,182.388,295.948,182.262,296.319,182.476z"/>
		</g>
		<g id="XMLID_5555_">
			<path id="XMLID_5556_" style="fill:#F0F0F0;" d="M472.244,143.274l-2.504,0.868l-0.705,2.555
				c-0.067,0.241-0.381,0.301-0.532,0.102l-1.599-2.114l-2.648,0.119c-0.25,0.011-0.404-0.269-0.261-0.475l1.516-2.174l-0.931-2.481
				c-0.088-0.234,0.131-0.468,0.371-0.395l2.536,0.77l2.072-1.652c0.196-0.156,0.485-0.02,0.49,0.23l0.051,2.65l2.212,1.46
				C472.52,142.874,472.48,143.192,472.244,143.274z"/>
		</g>
		<g id="XMLID_5553_">
			<path id="XMLID_5554_" style="fill:#F0F0F0;" d="M324.606,135.605l-2.504,0.868l-0.705,2.555
				c-0.067,0.241-0.381,0.301-0.532,0.102l-1.599-2.114l-2.648,0.119c-0.25,0.011-0.404-0.269-0.261-0.475l1.516-2.174l-0.931-2.481
				c-0.088-0.234,0.131-0.468,0.371-0.395l2.536,0.77l2.072-1.652c0.196-0.156,0.485-0.02,0.49,0.23l0.051,2.65l2.212,1.46
				C324.882,135.206,324.842,135.523,324.606,135.605z"/>
		</g>
		<g id="XMLID_5550_">
			<path id="XMLID_5552_" style="fill:#F0F0F0;" d="M454.195,227.633l-1.469,0.509l-0.414,1.499
				c-0.039,0.142-0.224,0.177-0.312,0.06l-0.938-1.24l-1.554,0.07c-0.147,0.007-0.237-0.158-0.153-0.279l0.89-1.276l-0.547-1.456
				c-0.052-0.137,0.077-0.275,0.217-0.232l1.488,0.452l1.216-0.97c0.115-0.092,0.285-0.012,0.288,0.135l0.03,1.555l1.298,0.857
				C454.357,227.398,454.334,227.585,454.195,227.633z"/>
		</g>
		<g id="XMLID_5547_">
			<path id="XMLID_5549_" style="fill:#F0F0F0;" d="M111.933,152.881l-4.033,1.397l-1.135,4.114
				c-0.107,0.389-0.613,0.486-0.857,0.164l-2.575-3.403l-4.263,0.192c-0.402,0.018-0.651-0.433-0.421-0.764l2.441-3.501l-1.5-3.995
				c-0.142-0.377,0.211-0.753,0.597-0.636l4.083,1.24l3.337-2.661c0.315-0.251,0.782-0.032,0.789,0.371l0.083,4.267l3.562,2.351
				C112.378,152.238,112.313,152.749,111.933,152.881z"/>
		</g>
		<g id="Star_2_">
			<g id="XMLID_5594_" style="opacity:0.5;">
				<g>
					<path style="fill:#BA68C8;" d="M319.045,75.44c-5.457,0-9.897-4.439-9.897-9.896c0-5.456,4.44-9.896,9.897-9.896
						c5.456,0,9.896,4.439,9.896,9.896C328.94,71.001,324.501,75.44,319.045,75.44z M319.045,56.159
						c-5.176,0-9.387,4.21-9.387,9.386s4.211,9.386,9.387,9.386s9.386-4.21,9.386-9.386S324.221,56.159,319.045,56.159z"/>
				</g>
			</g>
			<path id="XMLID_5588_" style="fill:#F0F0F0;" d="M321.872,65.545c0,1.562-1.266,2.828-2.828,2.828s-2.828-1.266-2.828-2.828
				c0-1.562,1.266-2.828,2.828-2.828S321.872,63.983,321.872,65.545z"/>
		</g>
		<g id="Star_1_">
			<g id="XMLID_5596_" style="opacity:0.5;">
				<g>
					<path style="fill:#BA68C8;" d="M64.548,216.486c-5.457,0-9.897-4.439-9.897-9.896c0-5.456,4.439-9.895,9.897-9.895
						c5.456,0,9.896,4.439,9.896,9.895C74.444,212.046,70.004,216.486,64.548,216.486z M64.548,197.204
						c-5.176,0-9.387,4.21-9.387,9.386s4.211,9.386,9.387,9.386c5.176,0,9.386-4.21,9.386-9.386S69.724,197.204,64.548,197.204z"/>
				</g>
			</g>
			<path id="XMLID_5595_" style="fill:#F0F0F0;" d="M67.376,206.59c0,1.562-1.266,2.828-2.828,2.828s-2.828-1.266-2.828-2.828
				c0-1.562,1.266-2.828,2.828-2.828S67.376,205.028,67.376,206.59z"/>
		</g>
	</g>
</g>
<g id="Device">
	<g id="Mobile_2_">
		<g id="Mobile_3_">
			<path style="fill:#BA68C8;" d="M398.121,401.024l-111.904,64.596c-3.632,2.098-7.911,2.142-11.676,0.219L49.249,335.759
				c-3.549-2.049-6.427-6.632-6.428-10.237c-0.001-3.605,2.876-8.188,6.425-10.237l111.49-64.369c3.535-2.041,9.318-2.041,12.853,0
				l224.531,129.635c3.549,2.049,6.426,6.632,6.427,10.237C404.548,394.392,401.671,398.975,398.121,401.024z"/>
			<g>
				<path style="opacity:0.4;" d="M160.737,250.916l-111.49,64.369c-3.549,2.049-6.426,6.632-6.426,10.237
					c0.001,3.604,2.879,8.188,6.428,10.237L274.542,465.84c1.787,0.913,3.69,1.367,5.585,1.384V312.426l-106.537-61.51
					C170.055,248.876,164.271,248.876,160.737,250.916z"/>
				<path style="opacity:0.25;" d="M286.217,465.621l111.904-64.596c3.549-2.049,6.427-6.632,6.427-10.237
					c0-3.604-2.877-8.187-6.427-10.237l-117.994-68.125v154.797C282.223,467.242,284.31,466.723,286.217,465.621z"/>
			</g>
			<path style="fill:#BA68C8;" d="M283.555,454.11c-3.117,1.799-8.217,1.799-11.333,0L49.219,325.361
				c-4.795-2.768-4.795-7.298,0-10.066l111.508-64.379c3.535-2.041,9.319-2.041,12.853,0l224.531,129.635
				c3.534,2.041,3.534,5.38,0,7.421L283.555,454.11z"/>
			<path style="opacity:0.15;" d="M283.555,454.11c-3.117,1.799-8.217,1.799-11.333,0L49.219,325.361
				c-4.795-2.768-4.795-7.298,0-10.066l111.508-64.379c3.535-2.041,9.319-2.041,12.853,0l224.531,129.635
				c3.534,2.041,3.534,5.38,0,7.421L283.555,454.11z"/>
			<path style="fill:#37474F;" d="M272.725,441.147c-3.373,1.947-8.841,1.947-12.214,0L68.624,330.36
				c-3.373-1.947-3.373-5.105,0-7.052l104.898-60.556c3.359-1.939,8.855-1.939,12.214,0L377.623,373.54
				c3.359,1.939,3.359,5.113,0,7.052L272.725,441.147z"/>
			<path style="fill:#263238;" d="M179.257,261.318c-2.087,0.052-4.15,0.519-5.735,1.434L68.624,323.308
				c-3.373,1.947-3.373,5.105,0,7.052l20.793,12.005l89.84-57.37V261.318z"/>
			<path style="fill:#455A64;" d="M185.809,267.337c-3.359-1.939-8.855-1.939-12.214,0L68.696,327.893
				c-0.666,0.385-1.192,0.819-1.594,1.279c0.393,0.427,0.899,0.828,1.522,1.188l191.887,110.787c3.373,1.948,8.841,1.948,12.214,0
				l104.898-60.556c0.659-0.38,1.183-0.809,1.584-1.265c-0.391-0.432-0.885-0.84-1.512-1.202L185.809,267.337z"/>
			<g>
				<path style="fill:#263238;" d="M106.967,294.985l18.591-10.733c1.109-0.64,1.165-1.646,0.124-2.247
					c-1.04-0.601-2.783-0.568-3.892,0.072l-18.591,10.734c-1.109,0.64-1.165,1.646-0.125,2.247
					C104.115,295.658,105.858,295.625,106.967,294.985z"/>
				<g>
					<path style="fill:#263238;" d="M138.891,276.581c1.04-0.601,1.04-1.575,0-2.175c-1.041-0.601-2.727-0.601-3.768,0
						c-1.041,0.601-1.041,1.575,0,2.175C136.164,277.182,137.851,277.182,138.891,276.581z"/>
					<path style="fill:#263238;" d="M146.427,272.224c1.04-0.601,1.04-1.574,0-2.175c-1.04-0.601-2.727-0.601-3.768,0
						c-1.04,0.601-1.041,1.574,0,2.175C143.7,272.825,145.387,272.825,146.427,272.224z"/>
					<path style="fill:#263238;" d="M86.137,307.034c1.04-0.601,1.04-1.575,0-2.175c-1.041-0.601-2.728-0.601-3.768,0
						c-1.041,0.601-1.041,1.575,0,2.175C83.409,307.635,85.096,307.635,86.137,307.034z"/>
					<path style="fill:#263238;" d="M93.673,302.678c1.04-0.601,1.04-1.575,0-2.175c-1.041-0.601-2.727-0.601-3.768,0
						c-1.04,0.601-1.04,1.575,0,2.175C90.945,303.278,92.632,303.278,93.673,302.678z"/>
				</g>
			</g>
			<g>
				<path style="fill:#BA68C8;" d="M119.919,369.189c1.109,0.64,2.009,2.134,2.009,3.335c0,0.58-0.211,0.982-0.553,1.171
					c-0.242,0.134-1.155,0.68-1.407,0.82c-0.365,0.203-0.879,0.164-1.449-0.165l-26.127-15.085c-1.109-0.64-2.008-2.133-2.008-3.335
					c0-0.554,0.192-0.945,0.508-1.144c0.248-0.157,1.199-0.705,1.45-0.845c0.365-0.204,0.88-0.166,1.452,0.164L119.919,369.189z"/>
				<path style="opacity:0.4;" d="M119.919,369.189c1.109,0.64,2.009,2.134,2.009,3.335c0,0.58-0.211,0.982-0.553,1.171
					c-0.242,0.134-1.155,0.68-1.407,0.82c-0.365,0.203-0.879,0.164-1.449-0.165l-26.127-15.085c-1.109-0.64-2.008-2.133-2.008-3.335
					c0-0.554,0.192-0.945,0.508-1.144c0.248-0.157,1.199-0.705,1.45-0.845c0.365-0.204,0.88-0.166,1.452,0.164L119.919,369.189z"/>
				<path style="fill:#BA68C8;" d="M118.519,369.999l-26.127-15.084c-1.109-0.641-2.008-0.186-2.008,1.016
					c0,1.201,0.899,2.695,2.008,3.335l26.127,15.084c1.109,0.64,2.008,0.185,2.008-1.016
					C120.527,372.132,119.628,370.639,118.519,369.999z"/>
				<path style="opacity:0.3;" d="M118.519,369.999l-26.127-15.084c-1.109-0.641-2.008-0.186-2.008,1.016
					c0,1.201,0.899,2.695,2.008,3.335l26.127,15.084c1.109,0.64,2.008,0.185,2.008-1.016
					C120.527,372.132,119.628,370.639,118.519,369.999z"/>
			</g>
			<g>
				<path style="fill:#BA68C8;" d="M84.947,348.998c1.109,0.64,2.008,2.133,2.008,3.335c0,0.58-0.211,0.982-0.553,1.171
					c-0.242,0.134-1.155,0.68-1.407,0.819c-0.365,0.203-0.879,0.164-1.449-0.165l-12.317-7.112c-1.109-0.64-2.008-2.133-2.008-3.335
					c0-0.554,0.192-0.945,0.508-1.144c0.248-0.157,1.199-0.705,1.45-0.845c0.365-0.204,0.88-0.166,1.452,0.164L84.947,348.998z"/>
				<path style="opacity:0.4;" d="M84.947,348.998c1.109,0.64,2.008,2.133,2.008,3.335c0,0.58-0.211,0.982-0.553,1.171
					c-0.242,0.134-1.155,0.68-1.407,0.819c-0.365,0.203-0.879,0.164-1.449-0.165l-12.317-7.112c-1.109-0.64-2.008-2.133-2.008-3.335
					c0-0.554,0.192-0.945,0.508-1.144c0.248-0.157,1.199-0.705,1.45-0.845c0.365-0.204,0.88-0.166,1.452,0.164L84.947,348.998z"/>
				<path style="fill:#BA68C8;" d="M83.546,349.808l-12.317-7.111c-1.109-0.64-2.008-0.185-2.008,1.016
					c0,1.202,0.899,2.695,2.008,3.335l12.317,7.111c1.109,0.64,2.008,0.185,2.008-1.016
					C85.554,351.941,84.656,350.448,83.546,349.808z"/>
				<path style="opacity:0.3;" d="M83.546,349.808l-12.317-7.111c-1.109-0.64-2.008-0.185-2.008,1.016
					c0,1.202,0.899,2.695,2.008,3.335l12.317,7.111c1.109,0.64,2.008,0.185,2.008-1.016
					C85.554,351.941,84.656,350.448,83.546,349.808z"/>
			</g>
		</g>
	</g>
	<g id="Button_1_">
		<path id="Shadow_20_" style="opacity:0.25;" d="M271.55,434.829c-2.154,0-4.226-0.51-5.831-1.438l-23.835-13.762
			c-2.093-1.208-3.294-3.066-3.294-5.098c0-2.031,1.201-3.89,3.294-5.098l76.642-44.25c1.605-0.928,3.676-1.438,5.83-1.438
			s4.225,0.51,5.83,1.438l23.837,13.762c2.093,1.208,3.293,3.066,3.293,5.098c0,2.031-1.2,3.89-3.292,5.098l-76.644,44.25
			C275.775,434.319,273.705,434.829,271.55,434.829z"/>
		<g id="Button">
			<g>
				<g>
					<path style="fill:#BA68C8;" d="M354.316,373.941c0-0.905-0.598-1.81-1.794-2.5l-23.836-13.762c-2.391-1.381-6.269-1.381-8.66,0
						l-76.642,44.25c-1.195,0.69-1.793,1.595-1.794,2.499c0,0.905,0,9.167,0,10.071c0,0.905,0.598,1.81,1.794,2.501l23.836,13.761
						c2.392,1.381,6.269,1.381,8.66,0l76.642-44.249c1.196-0.69,1.794-1.595,1.794-2.5
						C354.316,383.108,354.316,374.846,354.316,373.941z"/>
					<path style="opacity:0.15;" d="M352.523,371.441l-23.836-13.762c-2.391-1.381-6.269-1.381-8.66,0l-48.476,27.988v46.13
						c1.567,0,3.135-0.345,4.33-1.036l76.642-44.249c1.196-0.69,1.794-1.595,1.794-2.5c0-0.905,0-9.166,0-10.071
						C354.316,373.036,353.718,372.132,352.523,371.441z"/>
					<path style="opacity:0.25;" d="M243.384,401.93c-1.195,0.69-1.793,1.595-1.794,2.499c0,0.905,0,9.167,0,10.071
						c0,0.905,0.598,1.81,1.794,2.501l23.836,13.761c1.196,0.69,2.763,1.036,4.33,1.036v-46.13L243.384,401.93z"/>
				</g>
				<g>
					<path style="fill:#BA68C8;" d="M267.22,420.691l-23.836-13.761c-2.391-1.381-2.391-3.619,0-5l76.642-44.25
						c2.391-1.381,6.269-1.381,8.66,0l23.836,13.762c2.391,1.381,2.391,3.619,0,5l-76.643,44.249
						C273.489,422.072,269.611,422.072,267.22,420.691z"/>
					<g style="opacity:0.2;">
						<path style="fill:#FFFFFF;" d="M267.22,420.691l-23.836-13.761c-2.391-1.381-2.391-3.619,0-5l76.642-44.25
							c2.391-1.381,6.269-1.381,8.66,0l23.836,13.762c2.391,1.381,2.391,3.619,0,5l-76.643,44.249
							C273.489,422.072,269.611,422.072,267.22,420.691z"/>
					</g>
				</g>
			</g>
			
				<text transform="matrix(0.866 -0.5 0.866 0.5 270.581 412.3369)" style="fill:#FFFFFF; font-family:'Rubik-Bold'; font-size:24.4112px;">START</text>
		</g>
	</g>
</g>
<g id="Character">
	<g>
		<g id="Bottom_6_">
			<g id="Leg">
				<g>
					<path style="fill:#FFA8A7;" d="M403.054,311.138c4.152-1.775,11.18-4.619,11.334-4.651c2.465-0.511,4.374,1.164,5.193,2.777
						c0.907,1.787,5.993,2.861,5.975,9.333c-0.005,1.758-5.054,3.169-6.435,1.764c-1.672,1.701-10.645,8.814-10.645,8.814
						L403.054,311.138z"/>
					<path style="fill:#263238;" d="M418.773,336.418c0.116,0.881-0.152,1.457,1.088,2.413c1.24,0.955,6.049,2.346,10.075,1.661
						c4.027-0.685,9.076-2.712,9.743-8.304c0.667-5.592-0.101-7.916-1.311-10.348c-1.21-2.432-4.333-5.719-5.278-7.651
						c-0.945-1.931-0.956-5.186-1.315-7.005c-0.358-1.819-0.973-4.459-3.548-5.774c-2.574-1.315-4.605-0.868-4.605-0.868
						l-2.457,1.209c0,0,6.213,18.191,8.021,22.753C430.994,329.064,418.773,336.418,418.773,336.418z"/>
					<path style="fill:#BA68C8;" d="M437.891,324.785c-1.301-5.56-6.113-7.878-6.972-10.65c-0.859-2.773,0.098-7.764-2.986-10.51
						c-3.084-2.746-6.767-1.875-6.767-1.875s-5.333,1.569-7.484,3.126c-2.15,1.558-2.969,3.035-2.969,3.035l1.182-0.476
						c2.123-0.441,5.713,1.213,6.754,2.899c0.489,0.792,1.028,1.555,1.413,2.406c0.43,0.951,0.73,1.801,1.397,2.625
						c0.367,0.454,1.327,1.115,1.29,1.742c-0.043,0.721-0.954,0.062-1.312-0.117c-0.747-0.375-2.157-0.902-2.636,0.153
						c-0.169,0.372-0.186,0.741-0.193,1.444c-0.008,0.797,0.089,0.983-0.162,1.855c-0.17,0.59-0.614,1.135-1.087,1.531l-0.674,0.575
						c0,0,0.739,0.56,1.964,1.651c1.03,0.917,2.964,3.426,3.596,4.779c-0.004,0.003-2.043,1.664-3.29,2.892
						c-1.247,1.229-0.867,4.095,0.06,4.802c0.927,0.707,3.242,2.686,8.557,2.533c7.947-0.229,9.941-4.246,10.632-6.575
						C438.893,330.301,438.717,328.316,437.891,324.785z"/>
					<path style="opacity:0.15;" d="M437.891,324.785c-1.301-5.56-6.113-7.878-6.972-10.65c-0.859-2.773,0.098-7.764-2.986-10.51
						c-3.084-2.746-6.767-1.875-6.767-1.875s-5.333,1.569-7.484,3.126c-2.15,1.558-2.969,3.035-2.969,3.035l1.182-0.476
						c2.123-0.441,5.713,1.213,6.754,2.899c0.489,0.792,1.028,1.555,1.413,2.406c0.43,0.951,0.73,1.801,1.397,2.625
						c0.367,0.454,1.327,1.115,1.29,1.742c-0.043,0.721-0.954,0.062-1.312-0.117c-0.747-0.375-2.157-0.902-2.636,0.153
						c-0.169,0.372-0.186,0.741-0.193,1.444c-0.008,0.797,0.089,0.983-0.162,1.855c-0.17,0.59-0.614,1.135-1.087,1.531l-0.674,0.575
						c0,0,0.739,0.56,1.964,1.651c1.03,0.917,2.964,3.426,3.596,4.779c-0.004,0.003-2.043,1.664-3.29,2.892
						c-1.247,1.229-0.867,4.095,0.06,4.802c0.927,0.707,3.242,2.686,8.557,2.533c7.947-0.229,9.941-4.246,10.632-6.575
						C438.893,330.301,438.717,328.316,437.891,324.785z"/>
					<path style="fill:#FAFAFA;" d="M421.692,327.992c1.155-1.404,5.998-2.525,8.575-1.767c0.435-0.58,0.568-0.888-0.108-1.37
						c0,0-2.99-1.06-6.275,0.111c-2.239,0.798-3.06,1.73-3.06,1.73S420.896,327.715,421.692,327.992z"/>
					<path style="fill:#FAFAFA;" d="M419.986,325.671c0.974-1.535,5.644-3.241,8.294-2.805c0.36-0.629,0.455-0.951-0.275-1.347
						c0,0-3.097-0.686-6.214,0.879c-2.125,1.067-2.825,2.092-2.825,2.092S419.162,325.493,419.986,325.671z"/>
				</g>
				<g>
					<path style="fill:#455A64;" d="M379.881,276.608l25.449-6.412c1.242,5.136,2.015,15.265-0.123,23.005
						c-2.138,7.74-9.314,20.662-9.314,20.662l9.923-3.98c0,0,3.313-0.128,6.349,4.551c3.036,4.679,0.034,11.706,0.034,11.706
						s-13.021,11.097-26.325,19.101c-13.151,7.911-21.461,10.374-28.641,4.644c-4.242-3.385-4.271-10.449-2.71-19.452
						C356.277,320.312,379.881,276.608,379.881,276.608"/>
					<path style="fill:#37474F;" d="M406.479,309.956c-0.415-0.079-0.664-0.073-0.664-0.073l-9.923,3.98
						c0,0,5.806-10.456,8.528-18.191l-22.107-7.156c1.373,7.937,7.836,15.378,7.836,15.378s-9.348,23.019-13.234,34.544
						c-3.885,11.525-10.714,11.253-17,9.338c-6.251-1.904-6.254-10.408-6.254-10.502c-0.371,5.709,0.476,10.141,3.57,12.611
						c7.18,5.73,15.49,3.268,28.641-4.643c8.918-5.365,17.703-12.116,22.53-15.987L406.479,309.956z"/>
					<path style="opacity:0.15;" d="M395.069,324.757c6.033-7.73,14.75-13.004,14.795-13.031c-2.288-1.98-4.049-1.843-4.049-1.843
						l-9.923,3.98c0,0-8.535,18.465-15.48,21.275C380.412,335.138,389.026,332.5,395.069,324.757z"/>
				</g>
			</g>
			<g id="Le">
				<g>
					<path style="fill:#FFA8A7;" d="M427.613,324.134c4.152-1.775,11.18-4.619,11.334-4.651c2.465-0.511,4.374,1.164,5.193,2.778
						c0.907,1.787,5.993,2.861,5.975,9.333c-0.005,1.758-5.054,3.169-6.435,1.764c-1.672,1.701-10.645,8.814-10.645,8.814
						L427.613,324.134z"/>
					<path style="fill:#263238;" d="M443.332,349.413c0.116,0.881-0.316,1.278,0.924,2.233s6.028,2.537,10.055,1.852
						c4.027-0.685,9.076-3.149,9.738-7.832c0.788-5.576,0.089-8.399-1.121-10.831c-1.21-2.432-4.333-5.719-5.278-7.651
						c-0.945-1.931-0.956-5.187-1.315-7.005s-0.974-4.459-3.548-5.774s-4.604-0.868-4.604-0.868l-2.457,1.209
						c0,0,6.213,18.192,8.021,22.753C455.553,342.059,443.332,349.413,443.332,349.413z"/>
					<path style="fill:#BA68C8;" d="M462.45,337.781c-1.301-5.56-6.113-7.878-6.972-10.65c-0.859-2.773,0.098-7.764-2.986-10.51
						c-3.084-2.746-6.768-1.875-6.768-1.875s-5.333,1.569-7.484,3.126c-2.15,1.558-2.97,3.035-2.97,3.035l1.182-0.476
						c2.123-0.441,5.713,1.213,6.754,2.899c0.489,0.792,1.028,1.555,1.413,2.406c0.43,0.951,0.73,1.801,1.397,2.625
						c0.367,0.454,1.327,1.116,1.29,1.742c-0.043,0.721-0.954,0.062-1.312-0.117c-0.747-0.375-2.157-0.902-2.636,0.153
						c-0.169,0.372-0.186,0.741-0.193,1.444c-0.008,0.797,0.089,0.984-0.162,1.855c-0.17,0.59-0.614,1.135-1.087,1.531l-0.674,0.575
						c0,0,0.739,0.56,1.964,1.651c1.03,0.917,2.964,3.426,3.596,4.779c-0.003,0.003-2.043,1.664-3.289,2.892
						c-1.248,1.229-0.867,4.095,0.06,4.802c0.927,0.707,3.242,2.686,8.557,2.533c7.947-0.229,10.092-4.424,10.568-6.693
						C463.23,342.974,463.276,341.312,462.45,337.781z"/>
					<path style="opacity:0.15;" d="M462.45,337.781c-1.301-5.56-6.113-7.878-6.972-10.65c-0.859-2.773,0.098-7.764-2.986-10.51
						c-3.084-2.746-6.768-1.875-6.768-1.875s-5.333,1.569-7.484,3.126c-2.15,1.558-2.97,3.035-2.97,3.035l1.182-0.476
						c2.123-0.441,5.713,1.213,6.754,2.899c0.489,0.792,1.028,1.555,1.413,2.406c0.43,0.951,0.73,1.801,1.397,2.625
						c0.367,0.454,1.327,1.116,1.29,1.742c-0.043,0.721-0.954,0.062-1.312-0.117c-0.747-0.375-2.157-0.902-2.636,0.153
						c-0.169,0.372-0.186,0.741-0.193,1.444c-0.008,0.797,0.089,0.984-0.162,1.855c-0.17,0.59-0.614,1.135-1.087,1.531l-0.674,0.575
						c0,0,0.739,0.56,1.964,1.651c1.03,0.917,2.964,3.426,3.596,4.779c-0.003,0.003-2.043,1.664-3.289,2.892
						c-1.248,1.229-0.867,4.095,0.06,4.802c0.927,0.707,3.242,2.686,8.557,2.533c7.947-0.229,10.092-4.424,10.568-6.693
						C463.23,342.974,463.276,341.312,462.45,337.781z"/>
					<path style="fill:#FAFAFA;" d="M446.251,340.988c1.155-1.404,5.999-2.525,8.575-1.767c0.435-0.58,0.568-0.888-0.108-1.37
						c0,0-2.99-1.06-6.275,0.111c-2.239,0.798-3.06,1.73-3.06,1.73S445.455,340.71,446.251,340.988z"/>
					<path style="fill:#FAFAFA;" d="M444.545,338.666c0.974-1.535,5.644-3.241,8.294-2.805c0.36-0.629,0.455-0.951-0.275-1.347
						c0,0-3.097-0.686-6.214,0.879c-2.125,1.067-2.825,2.092-2.825,2.092S443.721,338.488,444.545,338.666z"/>
				</g>
				<g>
					<path style="fill:#455A64;" d="M437.435,327.072c-3.036-4.679-6.349-4.551-6.349-4.551l-9.923,3.98
						c0,0,7.712-12.63,10.641-20.107c3.467-8.853,4.74-14.102,3.2-26.908l-35.811-0.623l-19.312-2.255
						c0.635,18.014,13.415,26.488,13.415,26.488s-11.749,29.854-13.503,39.975c-1.561,9.003-1.531,16.067,2.71,19.452
						c7.18,5.73,15.49,3.268,28.641-4.644c13.304-8.004,26.325-19.101,26.325-19.101S440.471,331.751,437.435,327.072z"/>
					<path style="fill:#37474F;" d="M420.34,337.395c6.033-7.73,14.72-12.968,14.765-12.995c-2.512-2.135-4.019-1.879-4.019-1.879
						l-9.923,3.98c0,0-8.535,18.465-15.48,21.275C405.683,347.776,414.297,345.138,420.34,337.395z"/>
				</g>
			</g>
		</g>
		<g id="Top_5_">
			<path style="fill:#FFA8A7;" d="M367.32,287.677c5.22-6.749,4.704-5.967,6.034-14.37c1.33-8.404,5.999-43.081,5.999-43.081
				l-5.782-15.22c0,0-9.973,3.055-12.387,12.167c-3.481,13.143-6.908,46.818-6.908,46.818l-2.896,6.099L367.32,287.677z"/>
			<g>
				<path id="XMLID_5765_" style="fill:#455A64;" d="M375.124,214.184c0,0-6.26,1.223-10.479,5.102
					c-3.13,2.877-4.472,8.983-5.698,14.617c-1.441,6.619-3.111,20.701-3.111,20.701s9.572,9.265,21.322,7.752l6.358-27.836
					L375.124,214.184z"/>
			</g>
			<g id="XMLID_5682_">
				<path id="XMLID_5700_" style="fill:#BA68C8;" d="M424.14,228.444c10.443,28.223,11.131,55.741,11.131,55.741
					c-6.811,7.918-46.388,15.743-59.252-0.312c2.827-18.988-5.246-25.34-8.027-48.05c-1.227-10.014-4.069-19.273,13.426-23.876
					s30.146-1.332,30.146-1.332C417.826,213.961,422.022,222.72,424.14,228.444z"/>
				<g>
					<path style="fill:#37474F;" d="M438.544,201.817c1.225-2.515-0.645-7.816-4.449-12.742c-3.804-4.926-9.66-7.612-12.245-3.883
						c-2.585,3.729,2.315,12.833,5.926,15.277C431.386,202.913,436.738,205.493,438.544,201.817z"/>
					<path style="fill:#FFA8A7;" d="M425.376,108.081c-2.714,0.393-1.082,6.057-0.037,10.584c0.961,4.164,1.814,7.485,1.179,8.177
						c-0.9,0.982-2.908-3.489-5.41-4.346c-1.257-0.431-2.755-0.112-2.927,0.843c-0.173,0.96,0.62,1.253,2.025,3.338
						c1.066,1.581,3.124,8.24,6.152,11.175c1.179,1.143,1.983,4.94,2.113,7.869c0.579,12.998-0.531,28.349-0.531,28.349
						s-4.392,7.816-11.311,20.892c-3.181,6.012-8.525,15.035-8.525,15.035c-1.043,6.264,3.574,20.738,16.658,20.162
						c-1.63-5.506,11.12-27.438,17.403-39.106c4.402-8.174,4.927-9.23,4.798-12.867c-0.376-10.53-1.276-12.104-2.227-20.801
						c-1.081-9.879-1.467-14.881-1.558-15.946c-0.363-4.261,0.846-6.19,1.211-8.623c0.54-3.597,0.721-6.165-0.224-9.086
						c-0.269-0.83-0.719-1.694-1.529-2.019c-0.413-0.166-0.875-0.171-1.29-0.331c-0.644-0.248-1.293-0.874-1.967-1.022
						c-0.931-0.205-2.045,0.625-2.962,0.361c-0.402-0.115-1.366-0.975-1.783-0.944c-0.884,0.066-1.192,0.398-1.896,0.602
						c-0.38,0.11-1.294,0.747-1.584,0.281c-0.351-0.565-0.93-2.406-2.183-6.164C427.891,111.254,426.935,107.856,425.376,108.081z"
						/>
					<path style="fill:#F28F8F;" d="M430.895,125.771c0.958,2.606,1.298,5.7,2.825,6.196c1.167,0.379,2.533-0.433,2.743-1.878
						c0,0,0.588,1.145,1.844,1.133c1.256-0.012,1.755-1.152,1.755-1.152c0.324,0.522,1.967,0.957,3.019-0.275
						c-0.153,0.864-1.053,2.386-2.54,1.482c0,0-1.701,1.798-3.322,0.533c0,0,1.905,1.33,1.639,4.851c0,0-0.629-2.937-2.715-4.32
						c0,0-1.599,1.187-3.234,0.277C431.272,131.706,430.895,125.771,430.895,125.771z"/>
					<path style="fill:#455A64;" d="M404.907,209.667c2.03-1.719,3.19-2.648,5.947-5.926s10.995-18.548,10.995-18.548
						s0.334,5.617,5.622,11.273c6.752,7.222,11.073,5.352,11.073,5.352s-5.223,9.704-7.931,15.744
						c-2.345,5.23-5.562,11.867-4.79,15.672c-1.404,2.064-7.687,0.72-14.534-5.553C403.887,220.897,404.907,209.667,404.907,209.667
						z"/>
				</g>
				<g id="XMLID_263_">
					<g id="XMLID_4764_">
						<g id="XMLID_5431_">
							<path style="fill:#37474F;" d="M376.822,194.065c1.781,0.745,3.989,1.45,5.943,1.303c1.766-0.133,3.504,0.431,5.297,0.44
								c3.839,0.02,5.539,8.612,8.513,6.153c0.38-4.202,7.132-13.799,5.904-24.589c-0.624-5.476-3.583-10.644-9.089-10.891
								c0.268,0.012-1.343-2.736-1.571-2.954c-0.985-0.941-2.261-1.541-3.541-1.968c-2.836-0.945-5.691-1.08-8.642-0.765
								c-2.877,0.307-5.719,0.76-8.448,1.752c-2.884,1.048-5.646,2.15-8.736,1.277c-2.601-0.734-1.011,4.321,0.193,5.1
								c-1.06,0.278-1.858-1.467-2.736-1.504c-0.851-0.036-1.042,1.468-0.979,2.078c0.281,2.75,0.634,4.498,2.577,6.404
								c-1.89,1.76-0.423,3.893,1.25,5.127c2.007,1.48,3.152,3.867,4.759,5.812C370.04,189.895,373.143,192.526,376.822,194.065z"/>
							<path style="fill:#455A64;" d="M384.608,174.008c-1.421,3.139,0.025,12.9,1.768,21.663c0.559,0.074,1.12,0.135,1.688,0.137
								c3.839,0.02,5.539,8.612,8.513,6.153c0.38-4.202,7.132-13.799,5.904-24.589c-0.624-5.476-3.583-10.644-9.089-10.891
								C393.39,166.482,387.377,167.892,384.608,174.008z"/>
							<g>
								<path style="fill:#FFA8A7;" d="M384.608,174.008c1.369,3.08,4.482,5.31,7.839,5.617c-0.066,2.74-0.123,5.542,0.73,8.147
									c0.183,0.558,0.413,1.114,0.797,1.559c0.384,0.445,0.946,0.767,1.533,0.744c0.79-0.031,1.059-0.545,1.231-1.186
									c0.222-0.828,0.603-1.621,0.933-2.418c0.159-0.385,0.37-0.643,0.596-0.959c1.068-1.238,4.451-2.983,6.514,0.59
									c2.136,3.701-0.402,9.21-3.158,10.325c-4.75,1.923-6.194-1.294-6.194-1.294l2.616,15.62
									c-5.047,7.628-18.612,8.452-16.23,4.196l-1.653-6.743c0,0-3.737,1.04-5.918,0.881c-3.629-0.265-6.974-4.01-8.416-7.786
									c-2.962-7.756-3.895-19.421-2.124-25.114C370.773,180.982,377.475,175.701,384.608,174.008z"/>
							</g>
							<path style="fill:#263238;" d="M382.658,186.54c0.138,0.9-0.48,1.742-1.38,1.88c-0.9,0.138-1.742-0.48-1.88-1.38
								c-0.138-0.9,0.48-1.742,1.38-1.88C381.678,185.021,382.52,185.639,382.658,186.54z"/>
							<path style="fill:#263238;" d="M369.618,188.774c0.138,0.9-0.48,1.742-1.38,1.88c-0.9,0.138-1.742-0.48-1.88-1.38
								c-0.138-0.9,0.48-1.742,1.38-1.88C368.639,187.255,369.48,187.873,369.618,188.774z"/>
							<path id="XMLID_5433_" style="fill:#F28F8F;" d="M380.163,208.206c0,0,6.855-2.455,9.532-4.168
								c1.792-1.146,4.013-4.292,4.376-5.434c0,0-0.549,3.17-2.049,5.443c-1.835,2.78-11.382,6.106-11.382,6.106L380.163,208.206z"
								/>
						</g>
						<g id="XMLID_4765_">
							<polygon id="XMLID_5274_" style="fill:#F28F8F;" points="374.85,184.542 376.434,195.176 370.897,195.253 							"/>
							<path id="XMLID_4792_" style="fill:#263238;" d="M380.067,181.958l3.964,1.263c0.323-1.131-0.302-2.331-1.396-2.679
								C381.539,180.193,380.39,180.827,380.067,181.958z"/>
							<path id="XMLID_4789_" style="fill:#263238;" d="M364.784,186.092l3.205-2.702c-0.719-0.92-2.019-1.061-2.904-0.315
								C364.2,183.821,364.065,185.172,364.784,186.092z"/>
						</g>
					</g>
					<g id="XMLID_4513_">
						<g>
							<g id="XMLID_4520_">
								<path id="XMLID_4760_" style="fill:#B16668;" d="M381.64,196.016l-5.276,3.185c0.831,1.502,2.687,2.006,4.144,1.126
									C381.964,199.447,382.471,197.516,381.64,196.016z"/>
							</g>
							<path style="fill:#F28F8F;" d="M381.434,197.439c0.193-0.076,0.391-0.086,0.587-0.106c0.085,1.174-0.461,2.358-1.513,2.993
								c-0.062,0.038-0.129,0.058-0.192,0.091c-0.028-0.056-0.077-0.095-0.101-0.154
								C379.772,199.147,380.318,197.883,381.434,197.439z"/>
						</g>
					</g>
				</g>
			</g>
			<path style="fill:#FFA8A7;" d="M354.276,273.991c-1.474,2.514-8.794,16.129-11.591,20.797c-2.041,3.407-8.29,14.777-9.359,17.156
				c-2.168,4.82-5.407,10.36-4.859,15.851c0.135,1.347,0.499,2.561,0.499,3.916c0,1.55-0.187,3.093,0.785,4.377
				c0.291,0.385,0.786,0.665,1.017,1.094c0.31,0.577,0.286,1.356,0.635,1.931c0.958,1.576,2.156,0.027,2.77-0.931
				c2.479-3.868,3.93-8.278,6.402-12.134c1.048-1.634,2.076-3.309,3.35-4.779c0.225-0.259,0.918-0.745,1.288-0.557
				c0.424,0.215,0.213,0.971,0.222,1.365c0.021,0.971-0.056,1.942,0.011,2.912c0.09,1.311,0.504,2.695,1.544,3.497
				c0.564,0.436,1.407,0.645,1.976,0.216c0.346-0.261,0.512-0.702,0.563-1.133c0.051-0.43,0.004-0.866,0.014-1.299
				c0.038-1.79,1.009-3.411,1.502-5.132c0.494-1.726,0.504-3.55,0.449-5.345c-0.055-1.794-0.17-3.601,0.085-5.378
				c0.271-1.888,0.811-3.714,1.997-5.215c1.186-1.501,4.19-5.524,6.653-8.553c4.392-5.402,7.773-9.286,10.805-14.038
				L354.276,273.991z"/>
		</g>
	</g>
</g>
<g id="Rocket_2_">
	<g id="Rocket_1_">
		<path id="Shadow_28_" style="opacity:0.25;" d="M320.6,337.872c-1.438-0.83-3.207-1.352-5.061-1.57
			c-0.064-2.14-1.5-4.27-4.329-5.903c-5.788-3.342-15.173-3.342-20.961,0c-4.988,2.88-5.666,7.298-2.058,10.604
			c-6.307-0.643-13.037,0.434-17.91,3.247c-2.987,1.724-4.846,3.852-5.584,6.079c-9.014-2.625-20.288-1.774-27.816,2.573
			c-1.462,0.844-2.67,1.777-3.676,2.759c-0.005-0.003-0.009-0.006-0.014-0.009c-8.241-4.758-21.602-4.758-29.843,0
			c-3.092,1.785-5.024,3.987-5.796,6.292c-0.898-2.066-2.722-4.026-5.521-5.642c-7.066-4.08-17.889-4.65-26.029-1.733
			c-1.155-1.906-3.025-3.7-5.663-5.223c-7.432-4.291-18.512-5.17-27.467-2.667c1.719-3.75,0.05-7.911-5.044-10.851
			c-5.24-3.025-12.72-3.969-19.358-2.832c2.715-3.147,1.813-7.07-2.731-9.693c-5.688-3.284-14.91-3.284-20.598,0
			c-1.823,1.053-3.055,2.316-3.709,3.654c-3.133-0.443-6.572,0.023-9.02,1.437c-3.727,2.152-3.727,5.641,0,7.793
			c3.728,2.152,9.771,2.152,13.499,0c0.186-0.108,0.356-0.221,0.524-0.335c3.293,1.501,7.443,2.061,11.383,1.686
			c-5.073,4.376-4.267,10.35,2.427,14.216c5.565,3.213,13.651,4.068,20.578,2.586c-3.156,4.926-1.33,10.675,5.524,14.632
			c8.661,5,22.275,5.376,31.704,1.149c1.009,1.232,2.372,2.392,4.137,3.411c7.708,4.45,19.893,4.736,28.18,0.862
			c0.183,0.125,0.37,0.249,0.574,0.367c3.9,2.252,10.224,2.252,14.124,0c0.333-0.193,0.628-0.398,0.905-0.61
			c8.246,3.427,19.801,3.013,27.219-1.27c0.763-0.441,1.431-0.914,2.053-1.4c0.51,0.36,1.055,0.71,1.637,1.046
			c9.387,5.419,24.606,5.419,33.993,0c4.312-2.49,6.618-5.691,6.969-8.949c7.153,1.465,15.437,0.559,21.161-2.746
			c7.519-4.341,7.897-11.235,1.161-15.842c1.541,0.034,3.086-0.066,4.582-0.308c0.45,0.482,1.024,0.936,1.729,1.343
			c3.9,2.252,10.224,2.252,14.125,0C324.5,343.775,324.5,340.124,320.6,337.872z"/>
		<g id="Smoke">
			<g id="XMLID_4631_">
				<ellipse id="XMLID_4756_" style="fill:#BA68C8;" cx="196.497" cy="338.866" rx="58.181" ry="23.85"/>
				<ellipse id="XMLID_4755_" style="fill:#BA68C8;" cx="196.497" cy="338.866" rx="58.181" ry="23.85"/>
				<g id="XMLID_4753_" style="opacity:0.9;">
					<ellipse style="fill:#FFFFFF;" cx="196.497" cy="338.866" rx="58.181" ry="23.85"/>
				</g>
				<g id="XMLID_4741_">
					<path id="XMLID_4752_" style="fill:#BA68C8;" d="M135.373,322.93c0.36-13.956,11.796-25.144,25.842-25.144
						c14.024,0,25.482,11.188,25.842,25.144c0.023,0.248,0.023,0.473,0.023,0.72c0,0.248,0,0.473-0.023,0.72
						c-0.293,3.579-2.814,7.091-7.564,9.837c-10.085,5.83-26.472,5.83-36.579,0c-4.727-2.746-7.248-6.258-7.541-9.837
						c-0.023-0.248-0.023-0.473-0.023-0.72C135.35,323.403,135.35,323.178,135.373,322.93z"/>
					<g id="XMLID_4750_" style="opacity:0.8;">
						<path style="fill:#FFFFFF;" d="M135.373,322.93c0.36-13.956,11.796-25.144,25.842-25.144
							c14.024,0,25.482,11.188,25.842,25.144c0.023,0.248,0.023,0.473,0.023,0.72c0,0.248,0,0.473-0.023,0.72
							c-0.293,3.579-2.814,7.091-7.564,9.837c-10.085,5.83-26.472,5.83-36.579,0c-4.727-2.746-7.248-6.258-7.541-9.837
							c-0.023-0.248-0.023-0.473-0.023-0.72C135.35,323.403,135.35,323.178,135.373,322.93z"/>
					</g>
					<g id="XMLID_4748_" style="opacity:0.3;">
						<path style="fill:#FFFFFF;" d="M149.998,300.368L149.998,300.368c3.396-1.639,7.192-2.582,11.217-2.582
							c14.024,0,25.482,11.188,25.842,25.144c0.023,0.248,0.023,0.473,0.023,0.72c0,0.248,0,0.473-0.023,0.72
							c-0.293,3.579-2.814,7.091-7.564,9.837c-3.685,2.131-8.216,3.474-12.971,4.047c6.707-1.157,11.047-8.645,8.985-16.913
							C173.115,311.752,163.419,297.889,149.998,300.368z"/>
					</g>
					<path id="XMLID_4747_" style="opacity:0.1;fill:#BA68C8;" d="M135.373,324.371c-0.023-0.248-0.023-0.473-0.023-0.72
						c0-0.247,0-0.473,0.023-0.72c0.192-7.449,3.559-14.089,8.775-18.68c-2.808,2.887-9.055,13.771-2.267,22.067
						c4.465,5.457,25.657,13.243,43.098,3.237c-1.262,1.686-3.088,3.268-5.486,4.655c-10.085,5.83-26.472,5.83-36.579,0
						C138.187,331.462,135.665,327.95,135.373,324.371z"/>
					<g id="XMLID_4745_" style="opacity:0.5;">
						<path style="fill:#FFFFFF;" d="M161.478,303.614c-1.157,2.635,1.066,6.159,4.966,7.872c3.9,1.713,7.999,0.965,9.156-1.67
							c1.157-2.635-1.066-6.159-4.966-7.872C166.734,300.232,162.635,300.979,161.478,303.614z"/>
					</g>
					<g id="XMLID_4742_" style="opacity:0.5;">
						<path style="fill:#FFFFFF;" d="M176.453,314.34c-0.603,1.372,0.272,3.084,1.954,3.823c1.682,0.739,3.534,0.225,4.137-1.148
							c0.603-1.372-0.272-3.084-1.954-3.823C178.908,312.454,177.056,312.967,176.453,314.34z"/>
					</g>
				</g>
				<g id="XMLID_4712_">
					<path id="XMLID_4740_" style="fill:#BA68C8;" d="M245.184,323.621c-0.306-11.853-10.017-21.354-21.946-21.354
						c-11.91,0-21.64,9.501-21.946,21.354c-0.019,0.21-0.019,0.401-0.019,0.612c0,0.21,0,0.401,0.019,0.612
						c0.249,3.04,2.39,6.022,6.423,8.354c8.564,4.951,22.481,4.951,31.065,0c4.014-2.332,6.156-5.315,6.404-8.354
						c0.019-0.21,0.019-0.401,0.019-0.612C245.204,324.022,245.204,323.831,245.184,323.621z"/>
					<g id="XMLID_4738_" style="opacity:0.8;">
						<path style="fill:#FFFFFF;" d="M245.184,323.621c-0.306-11.853-10.017-21.354-21.946-21.354
							c-11.91,0-21.64,9.501-21.946,21.354c-0.019,0.21-0.019,0.401-0.019,0.612c0,0.21,0,0.401,0.019,0.612
							c0.249,3.04,2.39,6.022,6.423,8.354c8.564,4.951,22.481,4.951,31.065,0c4.014-2.332,6.156-5.315,6.404-8.354
							c0.019-0.21,0.019-0.401,0.019-0.612C245.204,324.022,245.204,323.831,245.184,323.621z"/>
					</g>
					<g id="XMLID_4735_" style="opacity:0.3;">
						<path style="fill:#FFFFFF;" d="M232.764,304.46L232.764,304.46c-2.884-1.392-6.108-2.193-9.526-2.193
							c-11.91,0-21.64,9.501-21.946,21.354c-0.019,0.21-0.019,0.401-0.019,0.612c0,0.21,0,0.401,0.019,0.612
							c0.249,3.04,2.39,6.022,6.423,8.354c3.13,1.809,6.977,2.95,11.015,3.437c-5.696-0.983-9.382-7.341-7.63-14.364
							C213.132,314.128,221.367,302.355,232.764,304.46z"/>
					</g>
					<path id="XMLID_4724_" style="opacity:0.1;fill:#BA68C8;" d="M245.184,324.844c0.019-0.21,0.019-0.401,0.019-0.612
						c0-0.21,0-0.401-0.019-0.612c-0.163-6.327-3.022-11.965-7.452-15.865c2.384,2.452,7.69,11.695,1.925,18.74
						c-3.792,4.634-21.789,11.247-36.601,2.749c1.072,1.432,2.622,2.776,4.658,3.953c8.564,4.951,22.481,4.951,31.065,0
						C242.795,330.866,244.936,327.884,245.184,324.844z"/>
					<g id="XMLID_4719_" style="opacity:0.5;">
						<path style="fill:#FFFFFF;" d="M223.015,307.217c0.983,2.238-0.905,5.231-4.217,6.685c-3.312,1.454-6.793,0.819-7.776-1.418
							c-0.983-2.238,0.905-5.231,4.217-6.685C218.551,304.344,222.032,304.979,223.015,307.217z"/>
					</g>
					<g id="XMLID_4715_" style="opacity:0.5;">
						<path style="fill:#FFFFFF;" d="M210.298,316.326c0.512,1.166-0.231,2.619-1.66,3.247c-1.428,0.627-3.001,0.191-3.513-0.975
							c-0.512-1.166,0.231-2.619,1.66-3.246C208.213,314.724,209.786,315.16,210.298,316.326z"/>
					</g>
				</g>
				<g id="XMLID_4701_">
					<path id="XMLID_4711_" style="fill:#BA68C8;" d="M267.229,327.586c-0.202-7.838-6.624-14.121-14.512-14.121
						c-7.876,0-14.31,6.283-14.512,14.121c-0.013,0.139-0.013,0.265-0.013,0.404c0,0.139,0,0.266,0.013,0.405
						c0.164,2.01,1.58,3.982,4.248,5.524c5.663,3.274,14.866,3.274,20.542,0c2.654-1.542,4.07-3.514,4.235-5.524
						c0.013-0.139,0.013-0.266,0.013-0.405C267.242,327.852,267.242,327.725,267.229,327.586z"/>
					<g id="XMLID_4709_" style="opacity:0.9;">
						<path style="fill:#FFFFFF;" d="M267.229,327.586c-0.202-7.838-6.624-14.121-14.512-14.121c-7.876,0-14.31,6.283-14.512,14.121
							c-0.013,0.139-0.013,0.265-0.013,0.404c0,0.139,0,0.266,0.013,0.405c0.164,2.01,1.58,3.982,4.248,5.524
							c5.663,3.274,14.866,3.274,20.542,0c2.654-1.542,4.07-3.514,4.235-5.524c0.013-0.139,0.013-0.266,0.013-0.405
							C267.242,327.852,267.242,327.725,267.229,327.586z"/>
					</g>
					<g id="XMLID_4707_" style="opacity:0.5;">
						<path style="fill:#FFFFFF;" d="M259.017,314.916L259.017,314.916c-1.908-0.92-4.039-1.45-6.299-1.45
							c-7.876,0-14.31,6.283-14.512,14.121c-0.013,0.139-0.013,0.265-0.013,0.404c0,0.139,0,0.266,0.013,0.405
							c0.164,2.01,1.58,3.982,4.248,5.524c2.07,1.197,4.614,1.951,7.284,2.273c-3.766-0.65-6.204-4.855-5.046-9.498
							C246.034,321.309,251.48,313.524,259.017,314.916z"/>
					</g>
					<path id="XMLID_4706_" style="opacity:0.1;fill:#BA68C8;" d="M267.229,328.395c0.013-0.139,0.013-0.266,0.013-0.405
						c0-0.139,0-0.265-0.013-0.404c-0.108-4.184-1.999-7.912-4.928-10.491c1.577,1.622,5.085,7.734,1.273,12.392
						c-2.508,3.064-14.408,7.437-24.203,1.818c0.708,0.947,1.734,1.836,3.08,2.614c5.663,3.274,14.866,3.274,20.542,0
						C265.649,332.377,267.065,330.405,267.229,328.395z"/>
					<g id="XMLID_4704_" style="opacity:0.5;">
						<path style="fill:#FFFFFF;" d="M252.57,316.739c0.65,1.48-0.599,3.459-2.789,4.421c-2.19,0.962-4.492,0.542-5.142-0.938
							c-0.65-1.48,0.599-3.459,2.789-4.421C249.618,314.839,251.92,315.259,252.57,316.739z"/>
					</g>
					<g id="XMLID_4702_" style="opacity:0.5;">
						<path style="fill:#FFFFFF;" d="M244.16,322.762c0.339,0.771-0.153,1.732-1.098,2.147c-0.945,0.415-1.985,0.126-2.323-0.645
							c-0.339-0.771,0.153-1.732,1.098-2.147C242.781,321.703,243.821,321.991,244.16,322.762z"/>
					</g>
				</g>
				<g id="XMLID_4638_">
					<path id="XMLID_4700_" style="fill:#BA68C8;" d="M292.178,333.846c-0.275-10.651-9.002-19.19-19.722-19.19
						c-10.703,0-19.447,8.538-19.722,19.19c-0.017,0.189-0.017,0.361-0.017,0.55c0,0.189,0,0.361,0.017,0.55
						c0.223,2.732,2.148,5.412,5.773,7.507c7.696,4.45,20.203,4.45,27.917,0c3.607-2.096,5.532-4.776,5.755-7.507
						c0.017-0.189,0.017-0.361,0.017-0.55C292.195,334.207,292.195,334.035,292.178,333.846z"/>
					<g id="XMLID_4698_" style="opacity:0.7;">
						<path style="fill:#FFFFFF;" d="M292.178,333.846c-0.275-10.651-9.002-19.19-19.722-19.19c-10.703,0-19.447,8.538-19.722,19.19
							c-0.017,0.189-0.017,0.361-0.017,0.55c0,0.189,0,0.361,0.017,0.55c0.223,2.732,2.148,5.412,5.773,7.507
							c7.696,4.45,20.203,4.45,27.917,0c3.607-2.096,5.532-4.776,5.755-7.507c0.017-0.189,0.017-0.361,0.017-0.55
							C292.195,334.207,292.195,334.035,292.178,333.846z"/>
					</g>
					<g id="XMLID_4696_" style="opacity:0.3;">
						<path style="fill:#FFFFFF;" d="M281.017,316.627L281.017,316.627c-2.592-1.251-5.489-1.971-8.561-1.971
							c-10.703,0-19.447,8.538-19.722,19.19c-0.017,0.189-0.017,0.361-0.017,0.55c0,0.189,0,0.361,0.017,0.55
							c0.223,2.732,2.148,5.412,5.773,7.507c2.813,1.626,6.27,2.651,9.899,3.089c-5.118-0.883-8.431-6.597-6.857-12.908
							C263.374,325.315,270.774,314.736,281.017,316.627z"/>
					</g>
					<path id="XMLID_4695_" style="opacity:0.1;fill:#BA68C8;" d="M292.178,334.946c0.017-0.189,0.017-0.361,0.017-0.55
						c0-0.189,0-0.361-0.017-0.55c-0.147-5.685-2.716-10.752-6.697-14.257c2.143,2.204,6.911,10.51,1.73,16.841
						c-3.408,4.164-19.581,10.107-32.891,2.47c0.963,1.287,2.357,2.494,4.187,3.552c7.696,4.45,20.203,4.45,27.917,0
						C290.031,340.357,291.955,337.677,292.178,334.946z"/>
					<g id="XMLID_4693_" style="opacity:0.5;">
						<path style="fill:#FFFFFF;" d="M272.256,319.105c0.883,2.011-0.814,4.701-3.79,6.008c-2.976,1.307-6.105,0.736-6.988-1.275
							c-0.883-2.011,0.814-4.701,3.79-6.008C268.244,316.523,271.373,317.094,272.256,319.105z"/>
					</g>
					<g id="XMLID_4662_" style="opacity:0.5;">
						<path style="fill:#FFFFFF;" d="M260.827,327.29c0.46,1.047-0.208,2.354-1.491,2.917c-1.284,0.564-2.697,0.172-3.157-0.876
							c-0.46-1.047,0.208-2.354,1.492-2.917C258.953,325.851,260.367,326.243,260.827,327.29z"/>
					</g>
				</g>
			</g>
			<g id="XMLID_4510_">
				<path id="XMLID_4576_" style="fill:#BA68C8;" d="M223.791,276.608c0,8.701-3.899,16.47-10.048,21.702
					c-4.185,3.54-6.751,8.629-6.751,14.119v49.42c0,1.734-1.132,3.469-3.426,4.788c-1.262,0.731-2.738,1.247-4.3,1.577
					c-2.566,0.531-5.404,0.531-7.97,0c-1.563-0.33-3.039-0.86-4.286-1.577c-2.279-1.319-3.426-3.053-3.426-4.788V312.3
					c0-5.433-2.566-10.45-6.708-13.961c-6.236-5.261-10.163-13.144-10.091-21.96c0.115-14.893,12.055-27.436,26.919-28.238
					C210.159,247.252,223.791,260.339,223.791,276.608z"/>
				<g id="XMLID_4564_" style="opacity:0.5;">
					<path style="fill:#FFFFFF;" d="M223.791,276.608c0,8.701-3.899,16.47-10.048,21.702c-4.185,3.54-6.751,8.629-6.751,14.119
						v49.42c0,1.734-1.132,3.469-3.426,4.788c-1.262,0.731-2.738,1.247-4.3,1.577c-2.566,0.531-5.404,0.531-7.97,0
						c-1.563-0.33-3.039-0.86-4.286-1.577c-2.279-1.319-3.426-3.053-3.426-4.788V312.3c0-5.433-2.566-10.45-6.708-13.961
						c-6.236-5.261-10.163-13.144-10.091-21.96c0.115-14.893,12.055-27.436,26.919-28.238
						C210.159,247.252,223.791,260.339,223.791,276.608z"/>
				</g>
				<path id="XMLID_4558_" style="fill:#BA68C8;" d="M211.191,276.608c0,5.353-2.658,10.073-6.707,12.953
					c-3.377,2.402-5.218,6.429-5.218,10.573v61.714c0,2.2-1.744,4.073-3.944,4.077c-0.027,0-0.054,0-0.081,0
					c-2.2-0.004-3.944-1.877-3.944-4.077V299.93c0-4.085-1.878-7.999-5.218-10.378c-4.157-2.953-6.837-7.855-6.694-13.388
					c0.229-8.242,7.024-15.122,15.266-15.452C203.723,260.367,211.191,267.621,211.191,276.608z"/>
				<g id="XMLID_4556_" style="opacity:0.7;">
					<path style="fill:#FFFFFF;" d="M211.191,276.608c0,5.353-2.658,10.073-6.707,12.953c-3.377,2.402-5.218,6.429-5.218,10.573
						v61.714c0,2.2-1.744,4.073-3.944,4.077c-0.027,0-0.054,0-0.081,0c-2.2-0.004-3.944-1.877-3.944-4.077V299.93
						c0-4.085-1.878-7.999-5.218-10.378c-4.157-2.953-6.837-7.855-6.694-13.388c0.229-8.242,7.024-15.122,15.266-15.452
						C203.723,260.367,211.191,267.621,211.191,276.608z"/>
				</g>
				<g id="XMLID_4554_" style="opacity:0.7;">
					<path style="fill:#FFFFFF;" d="M199.747,287.142c0-4.105,3.328-7.432,7.432-7.432c4.105,0,7.432,3.327,7.432,7.432
						s-3.327,7.432-7.432,7.432C203.075,294.574,199.747,291.247,199.747,287.142z"/>
				</g>
				<g id="XMLID_4552_" style="opacity:0.7;">
					<path style="fill:#FFFFFF;" d="M202.639,272.349c0-2.507,2.033-4.54,4.54-4.54c2.507,0,4.54,2.033,4.54,4.54
						c0,2.507-2.033,4.54-4.54,4.54C204.672,276.888,202.639,274.856,202.639,272.349z"/>
				</g>
				<g id="XMLID_4546_" style="opacity:0.7;">
					<path style="fill:#FFFFFF;" d="M193.963,265.104c0-1.242,1.007-2.25,2.249-2.25c1.243,0,2.25,1.007,2.25,2.25
						c0,1.242-1.007,2.249-2.25,2.249C194.97,267.353,193.963,266.346,193.963,265.104z"/>
				</g>
				<g id="XMLID_4544_" style="opacity:0.7;">
					<path style="fill:#FFFFFF;" d="M175.993,267.809c0-3.371,2.733-6.104,6.104-6.104c3.371,0,6.104,2.733,6.104,6.104
						c0,3.371-2.733,6.104-6.104,6.104C178.726,273.912,175.993,271.18,175.993,267.809z"/>
				</g>
				<g id="XMLID_4542_" style="opacity:0.7;">
					<path style="fill:#FFFFFF;" d="M174.975,278.841c0,1.581,1.282,2.862,2.862,2.862c1.581,0,2.862-1.281,2.862-2.862
						s-1.281-2.862-2.862-2.862C176.256,275.979,174.975,277.261,174.975,278.841z"/>
				</g>
				<g id="XMLID_4540_" style="opacity:0.7;">
					<path style="fill:#FFFFFF;" d="M177.11,288.86c0-2.568,2.082-4.65,4.65-4.65s4.65,2.082,4.65,4.65s-2.082,4.65-4.65,4.65
						S177.11,291.428,177.11,288.86z"/>
				</g>
				<g id="XMLID_4536_" style="opacity:0.7;">
					<path style="fill:#FFFFFF;" d="M188.201,295.882c0-2.114,1.714-3.828,3.828-3.828c2.114,0,3.828,1.714,3.828,3.828
						c0,2.114-1.714,3.828-3.828,3.828C189.915,299.71,188.201,297.996,188.201,295.882z"/>
				</g>
				<g id="XMLID_4532_" style="opacity:0.7;">
					<path style="fill:#FFFFFF;" d="M169.539,272.349c0-1.078,0.874-1.952,1.952-1.952c1.078,0,1.952,0.874,1.952,1.952
						c0,1.078-0.874,1.952-1.952,1.952C170.413,274.301,169.539,273.427,169.539,272.349z"/>
				</g>
				<g id="XMLID_4522_" style="opacity:0.7;">
					<path style="fill:#FFFFFF;" d="M212.006,264.276c0-1.42,1.151-2.571,2.571-2.571c1.42,0,2.571,1.151,2.571,2.571
						s-1.151,2.571-2.571,2.571C213.157,266.847,212.006,265.696,212.006,264.276z"/>
				</g>
				<g id="XMLID_4515_" style="opacity:0.7;">
					<circle style="fill:#FFFFFF;" cx="217.149" cy="276.888" r="2.588"/>
				</g>
				<g id="XMLID_4511_" style="opacity:0.7;">
					<path style="fill:#FFFFFF;" d="M187.753,278.983c0-1.429,1.159-2.588,2.588-2.588c1.429,0,2.588,1.159,2.588,2.588
						c0,1.429-1.159,2.588-2.588,2.588C188.912,281.57,187.753,280.412,187.753,278.983z"/>
				</g>
			</g>
			<g id="XMLID_505_">
				<g id="XMLID_4020_">
					<path id="XMLID_4495_" style="fill:#BA68C8;" d="M312.75,333.899c-0.167-6.492-5.486-11.696-12.02-11.696
						c-6.523,0-11.853,5.204-12.02,11.696c-0.01,0.115-0.01,0.22-0.01,0.335c0,0.115,0,0.22,0.01,0.335
						c0.136,1.665,1.309,3.298,3.518,4.576c4.691,2.712,12.313,2.712,17.015,0c2.199-1.277,3.371-2.911,3.507-4.576
						c0.01-0.115,0.01-0.22,0.01-0.335C312.761,334.119,312.761,334.014,312.75,333.899z"/>
					<g id="XMLID_4492_" style="opacity:0.5;">
						<path style="fill:#FFFFFF;" d="M312.75,333.899c-0.167-6.492-5.486-11.696-12.02-11.696c-6.523,0-11.853,5.204-12.02,11.696
							c-0.01,0.115-0.01,0.22-0.01,0.335c0,0.115,0,0.22,0.01,0.335c0.136,1.665,1.309,3.298,3.518,4.576
							c4.691,2.712,12.313,2.712,17.015,0c2.199-1.277,3.371-2.911,3.507-4.576c0.01-0.115,0.01-0.22,0.01-0.335
							C312.761,334.119,312.761,334.014,312.75,333.899z"/>
					</g>
					<g id="XMLID_4490_" style="opacity:0.5;">
						<path style="fill:#FFFFFF;" d="M305.948,323.404L305.948,323.404c-1.58-0.762-3.346-1.201-5.217-1.201
							c-6.523,0-11.853,5.204-12.02,11.696c-0.01,0.115-0.01,0.22-0.01,0.335c0,0.115,0,0.22,0.01,0.335
							c0.136,1.665,1.309,3.298,3.518,4.576c1.714,0.991,3.822,1.616,6.033,1.883c-3.12-0.538-5.138-4.021-4.179-7.867
							C295.195,328.699,299.705,322.251,305.948,323.404z"/>
					</g>
					<path id="XMLID_4489_" style="opacity:0.2;fill:#BA68C8;" d="M312.75,334.569c0.01-0.115,0.01-0.22,0.01-0.335
						c0-0.115,0-0.22-0.01-0.335c-0.089-3.465-1.655-6.553-4.081-8.689c1.306,1.343,4.212,6.406,1.055,10.264
						c-2.077,2.538-11.934,6.16-20.047,1.506c0.587,0.785,1.436,1.52,2.552,2.165c4.691,2.712,12.313,2.712,17.015,0
						C311.441,337.867,312.614,336.234,312.75,334.569z"/>
					<g id="XMLID_4486_" style="opacity:0.5;">
						<path style="fill:#FFFFFF;" d="M300.608,324.914c0.538,1.226-0.496,2.865-2.31,3.661s-3.721,0.449-4.259-0.777
							c-0.538-1.226,0.496-2.865,2.31-3.662C298.163,323.341,300.069,323.689,300.608,324.914z"/>
					</g>
					<g id="XMLID_4021_" style="opacity:0.5;">
						<path style="fill:#FFFFFF;" d="M293.642,329.903c0.28,0.638-0.127,1.434-0.909,1.778c-0.782,0.344-1.644,0.105-1.924-0.534
							c-0.28-0.638,0.127-1.435,0.909-1.778C292.5,329.026,293.362,329.265,293.642,329.903z"/>
					</g>
				</g>
				<g id="XMLID_3986_">
					<path id="XMLID_4015_" style="fill:#BA68C8;" d="M301.195,350.247c-0.23-8.939-7.555-16.105-16.552-16.105
						c-8.982,0-16.321,7.166-16.552,16.105c-0.014,0.159-0.014,0.303-0.014,0.461s0,0.303,0.014,0.461
						c0.188,2.293,1.802,4.542,4.845,6.301c6.459,3.734,16.955,3.734,23.429,0c3.028-1.759,4.643-4.008,4.83-6.301
						c0.014-0.159,0.014-0.303,0.014-0.461S301.21,350.406,301.195,350.247z"/>
					<g id="XMLID_4013_" style="opacity:0.6;">
						<path style="fill:#FFFFFF;" d="M301.195,350.247c-0.23-8.939-7.555-16.105-16.552-16.105c-8.982,0-16.321,7.166-16.552,16.105
							c-0.014,0.159-0.014,0.303-0.014,0.461s0,0.303,0.014,0.461c0.188,2.293,1.802,4.542,4.845,6.301
							c6.459,3.734,16.955,3.734,23.429,0c3.028-1.759,4.643-4.008,4.83-6.301c0.014-0.159,0.014-0.303,0.014-0.461
							S301.21,350.406,301.195,350.247z"/>
					</g>
					<g id="XMLID_4011_" style="opacity:0.5;">
						<path style="fill:#FFFFFF;" d="M291.828,335.796L291.828,335.796c-2.176-1.05-4.607-1.654-7.185-1.654
							c-8.982,0-16.321,7.166-16.552,16.105c-0.014,0.159-0.014,0.303-0.014,0.461s0,0.303,0.014,0.461
							c0.188,2.293,1.802,4.542,4.845,6.301c2.361,1.365,5.262,2.225,8.308,2.592c-4.296-0.741-7.076-5.537-5.755-10.833
							C277.021,343.087,283.232,334.208,291.828,335.796z"/>
					</g>
					<path id="XMLID_4010_" style="opacity:0.1;fill:#BA68C8;" d="M301.195,351.17c0.014-0.159,0.014-0.303,0.014-0.461
						s0-0.303-0.014-0.461c-0.123-4.771-2.279-9.024-5.62-11.965c1.798,1.849,5.8,8.82,1.452,14.134
						c-2.86,3.495-16.433,8.482-27.604,2.073c0.808,1.08,1.978,2.094,3.514,2.981c6.459,3.734,16.955,3.734,23.429,0
						C299.393,355.712,301.008,353.462,301.195,351.17z"/>
					<g id="XMLID_4008_" style="opacity:0.3;">
						<path style="fill:#FFFFFF;" d="M284.475,337.875c0.741,1.688-0.683,3.945-3.18,5.042c-2.498,1.097-5.123,0.618-5.865-1.07
							c-0.741-1.688,0.683-3.945,3.18-5.042C281.108,335.708,283.734,336.188,284.475,337.875z"/>
					</g>
					<g id="XMLID_4005_" style="opacity:0.3;">
						<path style="fill:#FFFFFF;" d="M274.884,344.745c0.386,0.879-0.174,1.975-1.252,2.449c-1.077,0.473-2.264,0.144-2.65-0.735
							c-0.386-0.879,0.174-1.975,1.252-2.449C273.311,343.537,274.498,343.866,274.884,344.745z"/>
					</g>
				</g>
				<g id="XMLID_3970_">
					<path id="XMLID_3985_" style="fill:#BA68C8;" d="M274.385,358.97c-0.286-11.094-9.376-19.987-20.542-19.987
						c-11.148,0-20.256,8.893-20.542,19.987c-0.018,0.197-0.018,0.376-0.018,0.573c0,0.197,0,0.376,0.018,0.573
						c0.233,2.845,2.237,5.637,6.012,7.82c8.016,4.634,21.043,4.634,29.077,0c3.757-2.183,5.762-4.974,5.994-7.82
						c0.018-0.197,0.018-0.376,0.018-0.573C274.403,359.346,274.403,359.167,274.385,358.97z"/>
					<g id="XMLID_3980_" style="opacity:0.8;">
						<path style="fill:#FFFFFF;" d="M274.385,358.97c-0.286-11.094-9.376-19.987-20.542-19.987
							c-11.148,0-20.256,8.893-20.542,19.987c-0.018,0.197-0.018,0.376-0.018,0.573c0,0.197,0,0.376,0.018,0.573
							c0.233,2.845,2.237,5.637,6.012,7.82c8.016,4.634,21.043,4.634,29.077,0c3.757-2.183,5.762-4.974,5.994-7.82
							c0.018-0.197,0.018-0.376,0.018-0.573C274.403,359.346,274.403,359.167,274.385,358.97z"/>
					</g>
					<g id="XMLID_3978_" style="opacity:0.3;">
						<path style="fill:#FFFFFF;" d="M262.76,341.035L262.76,341.035c-2.7-1.303-5.717-2.053-8.917-2.053
							c-11.148,0-20.256,8.893-20.542,19.987c-0.018,0.197-0.018,0.376-0.018,0.573c0,0.197,0,0.376,0.018,0.573
							c0.233,2.845,2.237,5.637,6.012,7.82c2.93,1.694,6.531,2.761,10.311,3.217c-5.331-0.92-8.781-6.872-7.142-13.444
							C244.383,350.084,252.092,339.065,262.76,341.035z"/>
					</g>
					<path id="XMLID_3977_" style="opacity:0.1;fill:#BA68C8;" d="M274.385,360.115c0.018-0.197,0.018-0.376,0.018-0.573
						c0-0.197,0-0.376-0.018-0.573c-0.153-5.922-2.829-11.2-6.975-14.849c2.232,2.295,7.198,10.947,1.802,17.541
						c-3.549,4.338-20.395,10.527-34.259,2.573c1.003,1.341,2.454,2.598,4.36,3.7c8.016,4.634,21.043,4.634,29.077,0
						C272.148,365.752,274.153,362.96,274.385,360.115z"/>
					<g id="XMLID_3973_" style="opacity:0.3;">
						<path style="fill:#FFFFFF;" d="M253.634,343.616c0.92,2.095-0.847,4.896-3.947,6.258s-6.358,0.767-7.278-1.328
							c-0.92-2.095,0.847-4.896,3.947-6.258C249.456,340.927,252.714,341.521,253.634,343.616z"/>
					</g>
					<g id="XMLID_3971_" style="opacity:0.3;">
						<path style="fill:#FFFFFF;" d="M241.73,352.142c0.479,1.091-0.216,2.451-1.554,3.039c-1.337,0.587-2.809,0.179-3.288-0.912
							c-0.479-1.091,0.216-2.452,1.553-3.039C239.779,350.642,241.251,351.05,241.73,352.142z"/>
					</g>
				</g>
				<g id="XMLID_3956_">
					<path id="XMLID_3969_" style="fill:#BA68C8;" d="M320.414,341.008c-0.101-3.923-3.315-7.067-7.263-7.067
						c-3.942,0-7.162,3.145-7.263,7.067c-0.006,0.07-0.006,0.133-0.006,0.202c0,0.07,0,0.133,0.006,0.203
						c0.082,1.006,0.791,1.993,2.126,2.765c2.834,1.639,7.44,1.639,10.281,0c1.329-0.772,2.037-1.759,2.119-2.765
						c0.006-0.07,0.006-0.133,0.006-0.203C320.42,341.141,320.42,341.078,320.414,341.008z"/>
					<g id="XMLID_3967_" style="opacity:0.2;">
						<path style="fill:#FFFFFF;" d="M320.414,341.008c-0.101-3.923-3.315-7.067-7.263-7.067c-3.942,0-7.162,3.145-7.263,7.067
							c-0.006,0.07-0.006,0.133-0.006,0.202c0,0.07,0,0.133,0.006,0.203c0.082,1.006,0.791,1.993,2.126,2.765
							c2.834,1.639,7.44,1.639,10.281,0c1.329-0.772,2.037-1.759,2.119-2.765c0.006-0.07,0.006-0.133,0.006-0.203
							C320.42,341.141,320.42,341.078,320.414,341.008z"/>
					</g>
					<g id="XMLID_3964_" style="opacity:0.5;">
						<path style="fill:#FFFFFF;" d="M316.303,334.667L316.303,334.667c-0.955-0.461-2.022-0.726-3.153-0.726
							c-3.942,0-7.162,3.145-7.263,7.067c-0.006,0.07-0.006,0.133-0.006,0.202c0,0.07,0,0.133,0.006,0.203
							c0.082,1.006,0.791,1.993,2.126,2.765c1.036,0.599,2.309,0.977,3.646,1.138c-1.885-0.325-3.105-2.43-2.525-4.754
							C309.806,337.866,312.531,333.97,316.303,334.667z"/>
					</g>
					<g id="XMLID_3962_" style="opacity:0.05;">
						<path d="M320.414,341.413c0.006-0.07,0.006-0.133,0.006-0.203c0-0.069,0-0.133-0.006-0.202c-0.054-2.094-1-3.96-2.466-5.25
							c0.789,0.811,2.545,3.87,0.637,6.202c-1.255,1.534-7.211,3.722-12.113,0.91c0.355,0.474,0.868,0.919,1.542,1.308
							c2.834,1.639,7.44,1.639,10.281,0C319.623,343.406,320.332,342.419,320.414,341.413z"/>
					</g>
					<g id="XMLID_3960_" style="opacity:0.3;">
						<path style="fill:#FFFFFF;" d="M313.077,335.579c0.325,0.741-0.299,1.731-1.396,2.213c-1.096,0.481-2.248,0.271-2.574-0.47
							c-0.325-0.741,0.3-1.731,1.396-2.212C311.599,334.628,312.752,334.838,313.077,335.579z"/>
					</g>
					<g id="XMLID_3957_" style="opacity:0.3;">
						<path style="fill:#FFFFFF;" d="M308.868,338.594c0.169,0.386-0.077,0.867-0.549,1.074c-0.473,0.208-0.993,0.063-1.163-0.323
							c-0.169-0.386,0.077-0.867,0.549-1.074C308.178,338.063,308.698,338.208,308.868,338.594z"/>
					</g>
				</g>
				<g id="XMLID_3941_">
					<path id="XMLID_3955_" style="fill:#BA68C8;" d="M83.32,327.286c0.167-6.492,5.487-11.696,12.02-11.696
						c6.523,0,11.853,5.204,12.02,11.696c0.01,0.115,0.01,0.22,0.01,0.335c0,0.115,0,0.22-0.01,0.335
						c-0.136,1.665-1.309,3.298-3.518,4.576c-4.691,2.712-12.313,2.712-17.015,0c-2.199-1.277-3.372-2.911-3.507-4.576
						c-0.01-0.115-0.01-0.22-0.01-0.335C83.309,327.506,83.309,327.402,83.32,327.286z"/>
					<g id="XMLID_3953_" style="opacity:0.5;">
						<path style="fill:#FFFFFF;" d="M83.32,327.286c0.167-6.492,5.487-11.696,12.02-11.696c6.523,0,11.853,5.204,12.02,11.696
							c0.01,0.115,0.01,0.22,0.01,0.335c0,0.115,0,0.22-0.01,0.335c-0.136,1.665-1.309,3.298-3.518,4.576
							c-4.691,2.712-12.313,2.712-17.015,0c-2.199-1.277-3.372-2.911-3.507-4.576c-0.01-0.115-0.01-0.22-0.01-0.335
							C83.309,327.506,83.309,327.402,83.32,327.286z"/>
					</g>
					<g id="XMLID_3951_" style="opacity:0.5;">
						<path style="fill:#FFFFFF;" d="M90.122,316.792L90.122,316.792c1.58-0.762,3.346-1.201,5.217-1.201
							c6.523,0,11.853,5.204,12.02,11.696c0.01,0.115,0.01,0.22,0.01,0.335c0,0.115,0,0.22-0.01,0.335
							c-0.136,1.665-1.309,3.298-3.518,4.576c-1.714,0.991-3.821,1.616-6.033,1.883c3.12-0.538,5.138-4.021,4.179-7.867
							C100.875,322.087,96.365,315.639,90.122,316.792z"/>
					</g>
					<path id="XMLID_3950_" style="opacity:0.2;fill:#BA68C8;" d="M83.32,327.956c-0.01-0.115-0.01-0.22-0.01-0.335
						c0-0.115,0-0.22,0.01-0.335c0.089-3.465,1.655-6.553,4.081-8.689c-1.306,1.343-4.212,6.405-1.055,10.264
						c2.077,2.538,11.934,6.16,20.047,1.506c-0.587,0.784-1.436,1.52-2.551,2.165c-4.691,2.712-12.313,2.712-17.015,0
						C84.628,331.255,83.455,329.621,83.32,327.956z"/>
					<g id="XMLID_3948_" style="opacity:0.3;">
						<path style="fill:#FFFFFF;" d="M95.462,318.302c-0.538,1.226,0.496,2.865,2.31,3.661c1.814,0.797,3.721,0.449,4.259-0.777
							c0.538-1.226-0.496-2.865-2.31-3.662C97.907,316.728,96,317.076,95.462,318.302z"/>
					</g>
					<g id="XMLID_3946_" style="opacity:0.3;">
						<path style="fill:#FFFFFF;" d="M102.427,323.291c-0.28,0.638,0.127,1.435,0.909,1.778c0.782,0.344,1.644,0.105,1.924-0.534
							c0.28-0.638-0.127-1.435-0.909-1.778C103.569,322.413,102.708,322.652,102.427,323.291z"/>
					</g>
				</g>
				<g id="XMLID_3916_">
					<path id="XMLID_3934_" style="fill:#BA68C8;" d="M107.766,330.362c0.243-9.416,7.958-16.965,17.435-16.965
						c9.462,0,17.192,7.548,17.436,16.965c0.015,0.167,0.015,0.319,0.015,0.486c0,0.167,0,0.319-0.015,0.486
						c-0.197,2.415-1.898,4.784-5.103,6.637c-6.804,3.934-17.86,3.934-24.68,0c-3.189-1.853-4.89-4.222-5.088-6.637
						c-0.015-0.167-0.015-0.319-0.015-0.486C107.751,330.681,107.751,330.529,107.766,330.362z"/>
					<g id="XMLID_3931_" style="opacity:0.7;">
						<path style="fill:#FFFFFF;" d="M107.766,330.362c0.243-9.416,7.958-16.965,17.435-16.965c9.462,0,17.192,7.548,17.436,16.965
							c0.015,0.167,0.015,0.319,0.015,0.486c0,0.167,0,0.319-0.015,0.486c-0.197,2.415-1.898,4.784-5.103,6.637
							c-6.804,3.934-17.86,3.934-24.68,0c-3.189-1.853-4.89-4.222-5.088-6.637c-0.015-0.167-0.015-0.319-0.015-0.486
							C107.751,330.681,107.751,330.529,107.766,330.362z"/>
					</g>
					<g id="XMLID_3927_" style="opacity:0.3;">
						<path style="fill:#FFFFFF;" d="M117.633,315.14L117.633,315.14c2.292-1.106,4.853-1.742,7.568-1.742
							c9.462,0,17.192,7.548,17.436,16.965c0.015,0.167,0.015,0.319,0.015,0.486c0,0.167,0,0.319-0.015,0.486
							c-0.197,2.415-1.898,4.784-5.103,6.637c-2.486,1.438-5.543,2.344-8.751,2.731c4.525-0.781,7.454-5.832,6.062-11.411
							C133.231,322.82,126.688,313.467,117.633,315.14z"/>
					</g>
					<path id="XMLID_3923_" style="opacity:0.1;fill:#BA68C8;" d="M107.766,331.334c-0.015-0.167-0.015-0.319-0.015-0.486
						c0-0.167,0-0.319,0.015-0.486c0.13-5.026,2.401-9.506,5.92-12.604c-1.894,1.948-6.11,9.291-1.53,14.888
						c3.013,3.682,17.311,8.935,29.078,2.184c-0.851,1.138-2.083,2.205-3.701,3.14c-6.804,3.934-17.86,3.934-24.68,0
						C109.664,336.118,107.963,333.749,107.766,331.334z"/>
					<g id="XMLID_3920_" style="opacity:0.5;">
						<path style="fill:#FFFFFF;" d="M125.379,317.33c-0.781,1.778,0.719,4.156,3.35,5.311c2.631,1.156,5.397,0.651,6.178-1.127
							c0.781-1.778-0.719-4.156-3.35-5.311C128.925,315.047,126.16,315.552,125.379,317.33z"/>
					</g>
					<g id="XMLID_3917_" style="opacity:0.5;">
						<path style="fill:#FFFFFF;" d="M135.482,324.566c-0.407,0.926,0.184,2.081,1.319,2.579c1.135,0.498,2.385,0.152,2.791-0.774
							c0.407-0.926-0.184-2.081-1.319-2.579C137.139,323.294,135.889,323.64,135.482,324.566z"/>
					</g>
				</g>
				<g id="XMLID_3905_">
					<path id="XMLID_3915_" style="fill:#BA68C8;" d="M97.486,341.025c0.231-8.939,7.555-16.105,16.552-16.105
						c8.982,0,16.321,7.166,16.552,16.105c0.014,0.159,0.014,0.303,0.014,0.461c0,0.159,0,0.303-0.014,0.461
						c-0.188,2.292-1.802,4.542-4.845,6.301c-6.459,3.734-16.956,3.734-23.429,0c-3.028-1.759-4.642-4.008-4.83-6.301
						c-0.014-0.159-0.014-0.303-0.014-0.461C97.471,341.328,97.471,341.184,97.486,341.025z"/>
					<g id="XMLID_3913_" style="opacity:0.6;">
						<path style="fill:#FFFFFF;" d="M97.486,341.025c0.231-8.939,7.555-16.105,16.552-16.105c8.982,0,16.321,7.166,16.552,16.105
							c0.014,0.159,0.014,0.303,0.014,0.461c0,0.159,0,0.303-0.014,0.461c-0.188,2.292-1.802,4.542-4.845,6.301
							c-6.459,3.734-16.956,3.734-23.429,0c-3.028-1.759-4.642-4.008-4.83-6.301c-0.014-0.159-0.014-0.303-0.014-0.461
							C97.471,341.328,97.471,341.184,97.486,341.025z"/>
					</g>
					<g id="XMLID_3911_" style="opacity:0.5;">
						<path style="fill:#FFFFFF;" d="M106.853,326.574L106.853,326.574c2.176-1.05,4.607-1.654,7.185-1.654
							c8.982,0,16.321,7.166,16.552,16.105c0.014,0.159,0.014,0.303,0.014,0.461c0,0.159,0,0.303-0.014,0.461
							c-0.188,2.292-1.802,4.542-4.845,6.301c-2.361,1.365-5.262,2.225-8.308,2.592c4.296-0.741,7.076-5.537,5.755-10.833
							C121.66,333.866,115.449,324.986,106.853,326.574z"/>
					</g>
					<path id="XMLID_3910_" style="opacity:0.15;fill:#BA68C8;" d="M97.486,341.948c-0.014-0.159-0.014-0.303-0.014-0.461
						c0-0.159,0-0.303,0.014-0.461c0.123-4.771,2.279-9.024,5.62-11.965c-1.798,1.849-5.8,8.82-1.452,14.134
						c2.86,3.495,16.434,8.482,27.604,2.073c-0.808,1.08-1.978,2.094-3.514,2.981c-6.459,3.734-16.956,3.734-23.429,0
						C99.288,346.49,97.673,344.241,97.486,341.948z"/>
					<g id="XMLID_3908_" style="opacity:0.3;">
						<path style="fill:#FFFFFF;" d="M114.206,328.653c-0.741,1.688,0.683,3.945,3.18,5.042c2.498,1.097,5.123,0.618,5.865-1.07
							c0.741-1.688-0.683-3.945-3.181-5.042C117.573,326.487,114.947,326.966,114.206,328.653z"/>
					</g>
					<g id="XMLID_3906_" style="opacity:0.3;">
						<path style="fill:#FFFFFF;" d="M123.798,335.523c-0.386,0.879,0.174,1.975,1.252,2.448c1.077,0.473,2.264,0.144,2.65-0.735
							c0.386-0.879-0.174-1.975-1.252-2.449C125.37,334.315,124.184,334.644,123.798,335.523z"/>
					</g>
				</g>
				<g id="XMLID_3865_">
					<path id="XMLID_3904_" style="fill:#BA68C8;" d="M121.917,356.491c0.286-11.094,9.376-19.987,20.542-19.987
						c11.148,0,20.256,8.893,20.542,19.987c0.018,0.197,0.018,0.376,0.018,0.573c0,0.197,0,0.376-0.018,0.573
						c-0.233,2.845-2.237,5.636-6.013,7.819c-8.016,4.635-21.043,4.635-29.077,0c-3.757-2.183-5.762-4.974-5.994-7.819
						c-0.018-0.197-0.018-0.376-0.018-0.573C121.899,356.867,121.899,356.688,121.917,356.491z"/>
					<g id="XMLID_3902_" style="opacity:0.8;">
						<path style="fill:#FFFFFF;" d="M121.917,356.491c0.286-11.094,9.376-19.987,20.542-19.987
							c11.148,0,20.256,8.893,20.542,19.987c0.018,0.197,0.018,0.376,0.018,0.573c0,0.197,0,0.376-0.018,0.573
							c-0.233,2.845-2.237,5.636-6.013,7.819c-8.016,4.635-21.043,4.635-29.077,0c-3.757-2.183-5.762-4.974-5.994-7.819
							c-0.018-0.197-0.018-0.376-0.018-0.573C121.899,356.867,121.899,356.688,121.917,356.491z"/>
					</g>
					<g id="XMLID_3900_" style="opacity:0.3;">
						<path style="fill:#FFFFFF;" d="M133.542,338.556L133.542,338.556c2.7-1.303,5.717-2.053,8.917-2.053
							c11.148,0,20.256,8.893,20.542,19.987c0.018,0.197,0.018,0.376,0.018,0.573c0,0.197,0,0.376-0.018,0.573
							c-0.233,2.845-2.237,5.636-6.013,7.819c-2.93,1.694-6.531,2.762-10.311,3.217c5.331-0.92,8.782-6.872,7.142-13.444
							C151.919,347.606,144.211,336.586,133.542,338.556z"/>
					</g>
					<path id="XMLID_3899_" style="opacity:0.1;fill:#BA68C8;" d="M121.917,357.636c-0.018-0.197-0.018-0.376-0.018-0.573
						c0-0.197,0-0.376,0.018-0.573c0.153-5.922,2.829-11.199,6.975-14.849c-2.232,2.295-7.198,10.947-1.802,17.541
						c3.549,4.338,20.395,10.527,34.259,2.573c-1.003,1.34-2.454,2.598-4.361,3.7c-8.016,4.635-21.043,4.635-29.077,0
						C124.154,363.273,122.149,360.482,121.917,357.636z"/>
					<g id="XMLID_3877_" style="opacity:0.3;">
						<path style="fill:#FFFFFF;" d="M142.668,341.137c-0.92,2.095,0.847,4.896,3.947,6.257c3.1,1.361,6.358,0.767,7.278-1.328
							c0.92-2.095-0.847-4.896-3.947-6.257C146.846,338.448,143.588,339.042,142.668,341.137z"/>
					</g>
					<g id="XMLID_3866_" style="opacity:0.3;">
						<path style="fill:#FFFFFF;" d="M154.572,349.663c-0.479,1.091,0.216,2.452,1.554,3.039c1.337,0.587,2.809,0.179,3.289-0.912
							c0.479-1.091-0.216-2.451-1.553-3.039C156.523,348.163,155.051,348.572,154.572,349.663z"/>
					</g>
				</g>
				<g id="XMLID_2460_">
					<path id="XMLID_3864_" style="fill:#BA68C8;" d="M237.023,360.18c-0.261-10.128-8.56-18.247-18.753-18.247
						c-10.177,0-18.492,8.119-18.753,18.247c-0.016,0.18-0.016,0.343-0.016,0.523c0,0.18,0,0.343,0.016,0.523
						c0.212,2.597,2.042,5.146,5.489,7.139c7.318,4.231,19.21,4.231,26.546,0c3.43-1.993,5.26-4.541,5.472-7.139
						c0.016-0.18,0.016-0.343,0.016-0.523C237.039,360.523,237.039,360.36,237.023,360.18z"/>
					<g id="XMLID_3845_" style="opacity:0.9;">
						<path style="fill:#FFFFFF;" d="M237.023,360.18c-0.261-10.128-8.56-18.247-18.753-18.247
							c-10.177,0-18.492,8.119-18.753,18.247c-0.016,0.18-0.016,0.343-0.016,0.523c0,0.18,0,0.343,0.016,0.523
							c0.212,2.597,2.042,5.146,5.489,7.139c7.318,4.231,19.21,4.231,26.546,0c3.43-1.993,5.26-4.541,5.472-7.139
							c0.016-0.18,0.016-0.343,0.016-0.523C237.039,360.523,237.039,360.36,237.023,360.18z"/>
					</g>
					<g id="XMLID_3836_" style="opacity:0.5;">
						<path style="fill:#FFFFFF;" d="M226.41,343.807L226.41,343.807c-2.465-1.189-5.219-1.874-8.14-1.874
							c-10.177,0-18.492,8.119-18.753,18.247c-0.016,0.18-0.016,0.343-0.016,0.523c0,0.18,0,0.343,0.016,0.523
							c0.212,2.597,2.042,5.146,5.489,7.139c2.674,1.546,5.962,2.521,9.413,2.937c-4.867-0.84-8.017-6.273-6.52-12.274
							C209.634,352.068,216.671,342.008,226.41,343.807z"/>
					</g>
					<path id="XMLID_3804_" style="opacity:0.1;fill:#BA68C8;" d="M237.023,361.225c0.016-0.18,0.016-0.343,0.016-0.523
						c0-0.18,0-0.343-0.016-0.523c-0.139-5.406-2.583-10.224-6.368-13.556c2.037,2.095,6.571,9.993,1.645,16.014
						c-3.24,3.96-18.619,9.611-31.276,2.349c0.916,1.224,2.241,2.372,3.981,3.378c7.318,4.231,19.21,4.231,26.546,0
						C234.981,366.371,236.811,363.823,237.023,361.225z"/>
					<g id="XMLID_2779_" style="opacity:0.5;">
						<path style="fill:#FFFFFF;" d="M218.079,346.163c0.84,1.912-0.774,4.47-3.604,5.713c-2.83,1.243-5.805,0.7-6.645-1.212
							c-0.84-1.912,0.774-4.47,3.604-5.713C214.264,343.708,217.239,344.25,218.079,346.163z"/>
					</g>
					<g id="XMLID_2647_" style="opacity:0.5;">
						<path style="fill:#FFFFFF;" d="M207.212,353.946c0.437,0.996-0.198,2.238-1.418,2.774c-1.221,0.536-2.565,0.163-3.002-0.833
							c-0.437-0.996,0.198-2.238,1.418-2.774S206.774,352.95,207.212,353.946z"/>
					</g>
				</g>
				<g id="XMLID_1374_">
					<path id="XMLID_2433_" style="fill:#BA68C8;" d="M158.691,362.219c0.249-9.633,8.141-17.354,17.836-17.354
						c9.679,0,17.587,7.722,17.836,17.354c0.016,0.171,0.016,0.326,0.016,0.497c0,0.171,0,0.326-0.016,0.497
						c-0.202,2.47-1.942,4.894-5.22,6.789c-6.96,4.024-18.271,4.024-25.247,0c-3.262-1.895-5.003-4.319-5.204-6.789
						c-0.016-0.171-0.016-0.326-0.016-0.497C158.675,362.545,158.675,362.39,158.691,362.219z"/>
					<g id="XMLID_2429_" style="opacity:0.9;">
						<path style="fill:#FFFFFF;" d="M158.691,362.219c0.249-9.633,8.141-17.354,17.836-17.354c9.679,0,17.587,7.722,17.836,17.354
							c0.016,0.171,0.016,0.326,0.016,0.497c0,0.171,0,0.326-0.016,0.497c-0.202,2.47-1.942,4.894-5.22,6.789
							c-6.96,4.024-18.271,4.024-25.247,0c-3.262-1.895-5.003-4.319-5.204-6.789c-0.016-0.171-0.016-0.326-0.016-0.497
							C158.675,362.545,158.675,362.39,158.691,362.219z"/>
					</g>
					<g id="XMLID_2401_" style="opacity:0.5;">
						<path style="fill:#FFFFFF;" d="M168.785,346.647L168.785,346.647c2.344-1.131,4.964-1.782,7.742-1.782
							c9.679,0,17.587,7.722,17.836,17.354c0.016,0.171,0.016,0.326,0.016,0.497c0,0.171,0,0.326-0.016,0.497
							c-0.202,2.47-1.942,4.894-5.22,6.789c-2.544,1.471-5.67,2.398-8.952,2.793c4.629-0.799,7.625-5.966,6.201-11.673
							C184.74,354.504,178.047,344.936,168.785,346.647z"/>
					</g>
					<path id="XMLID_2342_" style="opacity:0.1;fill:#BA68C8;" d="M158.691,363.213c-0.016-0.171-0.016-0.326-0.016-0.497
						c0-0.171,0-0.326,0.016-0.497c0.133-5.141,2.456-9.724,6.056-12.893c-1.938,1.993-6.25,9.505-1.565,15.23
						c3.082,3.766,17.708,9.14,29.746,2.234c-0.871,1.164-2.131,2.256-3.786,3.212c-6.96,4.024-18.271,4.024-25.247,0
						C160.633,368.107,158.892,365.684,158.691,363.213z"/>
					<g id="XMLID_1483_" style="opacity:0.5;">
						<path style="fill:#FFFFFF;" d="M176.708,348.888c-0.799,1.819,0.736,4.251,3.427,5.433c2.691,1.182,5.521,0.666,6.319-1.153
							c0.799-1.819-0.736-4.251-3.427-5.433C180.336,346.553,177.506,347.069,176.708,348.888z"/>
					</g>
					<g id="XMLID_1375_" style="opacity:0.5;">
						<path style="fill:#FFFFFF;" d="M187.043,356.29c-0.416,0.947,0.188,2.129,1.349,2.638c1.161,0.51,2.439,0.155,2.855-0.792
							c0.416-0.947-0.188-2.129-1.349-2.638C188.738,354.988,187.459,355.343,187.043,356.29z"/>
					</g>
				</g>
				<g id="XMLID_1273_">
					<path id="XMLID_1373_" style="fill:#BA68C8;" d="M204.973,368.456c-0.101-3.923-3.315-7.067-7.263-7.067
						c-3.942,0-7.162,3.144-7.263,7.067c-0.006,0.069-0.006,0.133-0.006,0.202c0,0.07,0,0.133,0.006,0.202
						c0.082,1.006,0.791,1.993,2.126,2.765c2.834,1.639,7.44,1.639,10.281,0c1.329-0.772,2.037-1.759,2.119-2.765
						c0.006-0.069,0.006-0.133,0.006-0.202C204.979,368.589,204.979,368.525,204.973,368.456z"/>
					<g id="XMLID_1343_" style="opacity:0.9;">
						<path style="fill:#FFFFFF;" d="M204.973,368.456c-0.101-3.923-3.315-7.067-7.263-7.067c-3.942,0-7.162,3.144-7.263,7.067
							c-0.006,0.069-0.006,0.133-0.006,0.202c0,0.07,0,0.133,0.006,0.202c0.082,1.006,0.791,1.993,2.126,2.765
							c2.834,1.639,7.44,1.639,10.281,0c1.329-0.772,2.037-1.759,2.119-2.765c0.006-0.069,0.006-0.133,0.006-0.202
							C204.979,368.589,204.979,368.525,204.973,368.456z"/>
					</g>
					<g id="XMLID_1333_" style="opacity:0.6;">
						<path style="fill:#FFFFFF;" d="M200.863,362.115L200.863,362.115c-0.955-0.461-2.021-0.726-3.153-0.726
							c-3.942,0-7.162,3.144-7.263,7.067c-0.006,0.069-0.006,0.133-0.006,0.202c0,0.07,0,0.133,0.006,0.202
							c0.082,1.006,0.791,1.993,2.126,2.765c1.036,0.599,2.309,0.976,3.646,1.137c-1.885-0.325-3.105-2.43-2.525-4.754
							C194.365,365.314,197.09,361.418,200.863,362.115z"/>
					</g>
					<path id="XMLID_1286_" style="opacity:0.1;fill:#BA68C8;" d="M204.973,368.861c0.006-0.069,0.006-0.133,0.006-0.202
						c0-0.069,0-0.133-0.006-0.202c-0.054-2.094-1-3.96-2.466-5.25c0.789,0.811,2.545,3.87,0.637,6.202
						c-1.255,1.534-7.211,3.722-12.113,0.91c0.355,0.474,0.868,0.919,1.542,1.308c2.834,1.639,7.44,1.639,10.281,0
						C204.182,370.854,204.891,369.867,204.973,368.861z"/>
					<g id="XMLID_1280_" style="opacity:0.5;">
						<path style="fill:#FFFFFF;" d="M197.636,363.027c0.325,0.741-0.299,1.731-1.395,2.212c-1.096,0.481-2.248,0.271-2.574-0.469
							s0.3-1.731,1.396-2.212C196.159,362.076,197.311,362.286,197.636,363.027z"/>
					</g>
					<g id="XMLID_1339_" style="opacity:0.5;">
						<path style="fill:#FFFFFF;" d="M193.427,366.041c0.169,0.386-0.077,0.867-0.549,1.074c-0.473,0.208-0.993,0.063-1.163-0.323
							c-0.169-0.386,0.077-0.867,0.549-1.074C192.737,365.511,193.258,365.656,193.427,366.041z"/>
					</g>
				</g>
				<g id="XMLID_1271_">
					<path id="XMLID_1267_" style="fill:#BA68C8;" d="M71.83,331.279c0.101-3.923,3.315-7.067,7.263-7.067
						c3.942,0,7.162,3.145,7.263,7.067c0.006,0.07,0.006,0.133,0.006,0.202c0,0.07,0,0.133-0.006,0.203
						c-0.082,1.006-0.791,1.993-2.126,2.765c-2.834,1.639-7.44,1.639-10.281,0c-1.329-0.772-2.037-1.759-2.119-2.765
						c-0.006-0.07-0.006-0.133-0.006-0.203C71.824,331.412,71.824,331.349,71.83,331.279z"/>
					<g id="XMLID_1182_" style="opacity:0.2;">
						<path style="fill:#FFFFFF;" d="M71.83,331.279c0.101-3.923,3.315-7.067,7.263-7.067c3.942,0,7.162,3.145,7.263,7.067
							c0.006,0.07,0.006,0.133,0.006,0.202c0,0.07,0,0.133-0.006,0.203c-0.082,1.006-0.791,1.993-2.126,2.765
							c-2.834,1.639-7.44,1.639-10.281,0c-1.329-0.772-2.037-1.759-2.119-2.765c-0.006-0.07-0.006-0.133-0.006-0.203
							C71.824,331.412,71.824,331.349,71.83,331.279z"/>
					</g>
					<g id="XMLID_1170_" style="opacity:0.5;">
						<path style="fill:#FFFFFF;" d="M75.94,324.938L75.94,324.938c0.955-0.461,2.022-0.726,3.153-0.726
							c3.942,0,7.162,3.145,7.263,7.067c0.006,0.07,0.006,0.133,0.006,0.202c0,0.07,0,0.133-0.006,0.203
							c-0.082,1.006-0.791,1.993-2.126,2.765c-1.036,0.599-2.309,0.976-3.646,1.138c1.885-0.325,3.105-2.43,2.525-4.754
							C82.438,328.138,79.712,324.241,75.94,324.938z"/>
					</g>
					<g id="XMLID_1168_" style="opacity:0.05;">
						<path d="M71.83,331.684c-0.006-0.07-0.006-0.133-0.006-0.203c0-0.07,0-0.133,0.006-0.202c0.054-2.094,1-3.96,2.466-5.25
							c-0.789,0.812-2.545,3.871-0.637,6.202c1.255,1.534,7.211,3.722,12.113,0.91c-0.355,0.474-0.868,0.919-1.542,1.308
							c-2.834,1.639-7.44,1.639-10.281,0C72.621,333.677,71.912,332.69,71.83,331.684z"/>
					</g>
					<g id="XMLID_1157_" style="opacity:0.3;">
						<path style="fill:#FFFFFF;" d="M79.167,325.85c-0.325,0.741,0.3,1.731,1.396,2.212c1.096,0.481,2.248,0.271,2.574-0.47
							c0.325-0.741-0.3-1.731-1.396-2.212C80.644,324.9,79.492,325.11,79.167,325.85z"/>
					</g>
					<g id="XMLID_838_" style="opacity:0.3;">
						<path style="fill:#FFFFFF;" d="M83.376,328.865c-0.169,0.386,0.077,0.867,0.549,1.074s0.993,0.063,1.163-0.323
							c0.169-0.386-0.077-0.867-0.549-1.074C84.066,328.335,83.545,328.479,83.376,328.865z"/>
					</g>
				</g>
			</g>
		</g>
		<g id="Flame">
			<path id="XMLID_723_" style="fill:#BA68C8;" d="M213.49,256.266l-18.203-4.719l-18.203,4.719c0,0-2.183,9.756,0.2,25.032
				c2.383,15.276,13.024,30.562,18.003,30.562s15.62-15.286,18.003-30.562C215.672,266.021,213.49,256.266,213.49,256.266z"/>
			<g id="XMLID_669_" style="opacity:0.7;">
				<path style="fill:#FFFFFF;" d="M213.49,256.266l-18.203-4.719l-18.203,4.719c0,0-2.183,9.756,0.2,25.032
					c2.383,15.276,13.024,30.562,18.003,30.562s15.62-15.286,18.003-30.562C215.672,266.021,213.49,256.266,213.49,256.266z"/>
			</g>
			<path id="XMLID_605_" style="fill:#BA68C8;" d="M207.203,258.467h-12.46h-12.46c-3.558,21.525,7.873,38.036,12.46,38.036
				S210.762,279.992,207.203,258.467z"/>
			<path id="XMLID_503_" style="fill:#FFFFFF;" d="M194.743,258.467h4.268c0,0,2.946,4.388,2.315,11.498
				c-0.515,5.805-4.019,13.351-6.583,13.351s-6.069-7.547-6.583-13.351c-0.631-7.11,2.315-11.498,2.315-11.498H194.743"/>
		</g>
		<g id="Rocket">
			<g>
				<path style="fill:#37474F;" d="M223.18,249.686h0.028l-2.377-25.317h-51.097l-2.377,25.317h0.025
					c-0.493,4.472,2.195,9.039,8.12,12.455c10.935,6.306,28.654,6.306,39.576,0C220.995,258.725,223.677,254.158,223.18,249.686z"/>
				<path style="fill:#455A64;" d="M177.182,235.817c-10.007-5.77-10.012-15.129-0.011-20.903c10-5.774,26.215-5.774,36.216,0
					c10.001,5.774,10.006,15.133,0.011,20.903C203.402,241.588,187.188,241.587,177.182,235.817z"/>
				<path style="fill:#BA68C8;" d="M222.626,243.488l-0.797-8.484c-0.73,3.267-3.261,6.424-7.607,8.933
					c-10.451,6.034-27.404,6.034-37.867,0c-4.349-2.508-6.885-5.665-7.62-8.931l-0.796,8.479c0.642,3.485,3.271,6.871,7.901,9.541
					c10.748,6.198,28.163,6.198,38.898,0C219.363,250.357,221.987,246.972,222.626,243.488z"/>
				<path style="opacity:0.2;" d="M195.688,251.482c14.252,0,22.903-4.922,26.803-9.436l-0.588-6.268
					c-6.665,4.598-15.718,7.099-25.817,7.1c-0.265,0-0.528-0.002-0.795-0.005c-7.022,0.079-13.556-1.034-19.166-3.208
					c0.269-1.605,0.573-3.357,0.916-5.281l-2.164-10.015h-2.98l-2.373,2.245l-2.166,23.072h0.025
					c-0.493,4.472,2.195,9.038,8.12,12.455c10.935,6.306,28.654,6.306,39.576,0c0.371-0.214,0.729-0.433,1.075-0.656
					c-0.014,0.007-8.279,4.127-20.991,3.587c-12.722-0.541-20.511-5.396-20.743-8.967c-0.131-2.021-0.007-4.604,0.539-8.789
					C179.919,249.806,186.842,251.482,195.688,251.482z"/>
			</g>
			<path style="fill:#455A64;" d="M196.086,242.878c-0.265,0-0.528-0.002-0.795-0.005c-11.254,0.126-21.271-2.789-28.211-8.267
				c-2.653-2.093-3.106-5.94-1.013-8.593c2.094-2.652,5.941-3.105,8.593-1.013c4.76,3.756,12.063,5.764,20.544,5.636l0.087-0.001
				l0.087,0.001c8.488,0.094,15.785-1.881,20.544-5.636c2.651-2.093,6.499-1.639,8.593,1.013c2.093,2.653,1.639,6.5-1.013,8.593
				C216.726,239.954,207.016,242.878,196.086,242.878z"/>
			<path style="fill:#37474F;" d="M170.794,233.282c1.838,0.003,8.731,5.152,24.114,5.152c15.38,0,25.647-6.039,30.557-10.706
				c-0.218-0.604-0.53-1.184-0.949-1.715c-2.094-2.652-5.942-3.105-8.593-1.013c-4.76,3.755-12.056,5.73-20.545,5.636l-0.087-0.001
				l-0.088,0.001c-8.481,0.128-15.784-1.881-20.544-5.636c-2.652-2.093-6.499-1.639-8.593,1.013c-2.093,2.653-1.64,6.5,1.013,8.593
				c6.94,5.477,16.958,8.393,28.212,8.267c-5.852,0-11.635-1.282-17.759-3.557C171.407,237.042,168.957,233.279,170.794,233.282z"/>
			<g>
				<g>
					<path style="fill:#F5F5F5;" d="M195.287,235.967c-9.322,0-18.08-2.093-24.66-5.893c-6.515-3.761-10.102-8.739-10.102-14.017
						v-0.382h-0.026c-0.38-6.618-4.584-81.559-2.116-108.96c2.911-32.314,27.136-59.103,34.49-66.543
						c0.645-0.651,1.502-1.01,2.415-1.01s1.77,0.358,2.415,1.01c7.355,7.44,31.579,34.23,34.489,66.543
						c2.469,27.401-1.735,102.342-2.115,108.96h-0.021l-0.005,0.382c0,5.277-3.588,10.255-10.103,14.017
						C213.367,233.874,204.609,235.967,195.287,235.967z"/>
					<path style="fill:#E0E0E0;" d="M195.287,39.545c0.81,0,1.571,0.318,2.142,0.896c7.332,7.418,31.482,34.122,34.382,66.309
						c2.427,26.946-1.607,99.95-2.096,108.544h-0.048l0,0.765c0,5.135-3.52,9.996-9.911,13.686
						c-6.524,3.766-15.214,5.841-24.469,5.841c-9.256,0-17.946-2.074-24.469-5.841c-6.391-3.69-9.912-8.55-9.912-13.686
						l-0.005-0.765h-0.042c-0.489-8.593-4.523-81.591-2.096-108.544c2.899-32.187,27.049-58.891,34.382-66.309
						C193.716,39.863,194.477,39.545,195.287,39.545 M195.287,38.78c-0.973,0-1.946,0.374-2.686,1.123
						c-8.066,8.16-31.7,34.591-34.6,66.778c-2.211,24.551,0.958,89.086,2.135,109.377h0.005c0,5.193,3.431,10.386,10.294,14.348
						c6.863,3.962,15.857,5.943,24.852,5.943c8.994,0,17.989-1.981,24.851-5.943c6.863-3.962,10.294-9.155,10.294-14.348h0.005
						c1.177-20.291,4.346-84.826,2.135-109.377c-2.899-32.187-26.533-58.618-34.599-66.778
						C197.233,39.154,196.26,38.78,195.287,38.78L195.287,38.78z"/>
				</g>
				<g>
					<path style="fill:#E0E0E0;" d="M230.156,184.01c-1.645,2.817-4.116,5.091-6.784,6.977c-1.341,0.951-2.814,1.676-4.246,2.48
						c-1.493,0.669-2.966,1.413-4.524,1.928c-6.16,2.313-12.761,3.194-19.307,3.283c-6.546-0.086-13.147-0.965-19.309-3.276
						c-1.558-0.515-3.031-1.259-4.525-1.927c-1.433-0.803-2.905-1.53-4.247-2.478c-2.669-1.885-5.141-4.159-6.788-6.975
						c1.932,2.614,4.445,4.705,7.196,6.346c1.355,0.859,2.826,1.514,4.253,2.234c1.492,0.589,2.951,1.251,4.496,1.688
						c6.092,1.993,12.525,2.806,18.923,2.859c6.398-0.052,12.831-0.868,18.923-2.861c1.545-0.437,3.005-1.101,4.495-1.691
						c1.427-0.719,2.898-1.377,4.253-2.236C225.715,188.719,228.227,186.627,230.156,184.01z"/>
					<path style="fill:#E0E0E0;" d="M230.156,146.137c-1.645,2.817-4.116,5.092-6.784,6.977c-1.341,0.951-2.814,1.676-4.246,2.48
						c-1.493,0.668-2.966,1.413-4.524,1.928c-6.16,2.313-12.761,3.194-19.307,3.284c-6.546-0.086-13.147-0.965-19.309-3.276
						c-1.558-0.515-3.031-1.259-4.525-1.927c-1.433-0.803-2.905-1.529-4.247-2.478c-2.669-1.885-5.141-4.159-6.788-6.975
						c1.932,2.614,4.445,4.705,7.196,6.346c1.355,0.859,2.826,1.514,4.253,2.234c1.492,0.589,2.951,1.251,4.496,1.688
						c6.092,1.993,12.525,2.806,18.923,2.859c6.398-0.052,12.831-0.868,18.923-2.861c1.545-0.437,3.005-1.101,4.495-1.691
						c1.427-0.719,2.898-1.377,4.253-2.235C225.715,150.846,228.227,148.753,230.156,146.137z"/>
					<path style="fill:#E0E0E0;" d="M196.558,166.428c0,0.706-0.572,1.278-1.278,1.278c-0.706,0-1.278-0.572-1.278-1.278
						c0-0.706,0.572-1.278,1.278-1.278C195.986,165.151,196.558,165.723,196.558,166.428z"/>
					<circle style="fill:#E0E0E0;" cx="217.025" cy="161.048" r="1.278"/>
					<circle style="fill:#E0E0E0;" cx="173.535" cy="161.048" r="1.278"/>
					<path style="fill:#E0E0E0;" d="M218.303,200.505c0,0.706-0.572,1.278-1.278,1.278c-0.706,0-1.278-0.572-1.278-1.278
						c0-0.706,0.572-1.278,1.278-1.278C217.731,199.227,218.303,199.799,218.303,200.505z"/>
					<path style="fill:#E0E0E0;" d="M174.813,200.505c0,0.706-0.572,1.278-1.278,1.278c-0.706,0-1.278-0.572-1.278-1.278
						c0-0.706,0.572-1.278,1.278-1.278C174.241,199.227,174.813,199.799,174.813,200.505z"/>
				</g>
			</g>
			<g>
				<path style="fill:#BA68C8;" d="M216.265,92.906c-11.586,6.691-30.368,6.691-41.954,0c-7.235-4.183-9.957-9.98-8.145-15.379
					c0-0.008,0-0.008,0-0.008c0.398-0.857,0.795-1.698,1.208-2.531c8.417-17.047,20.058-29.86,25.24-35.1
					c1.473-1.489,3.874-1.489,5.346,0c5.175,5.235,16.794,18.027,25.202,35.046c0.436,0.872,0.857,1.744,1.262,2.638
					C226.207,82.956,223.484,88.738,216.265,92.906z"/>
				<path style="opacity:0.15;" d="M195.288,94.1c-7.263,0-14.034-1.601-19.064-4.506c-5.288-3.057-7.641-6.945-6.483-10.693
					c0.348-0.749,0.698-1.486,1.061-2.216c8.252-16.714,19.838-29.357,24.486-34.063c0,0-7.197,14.661-8.833,26.957
					C184.818,81.874,189.084,89.926,195.288,94.1z"/>
				<path style="opacity:0.5;fill:#FFFFFF;" d="M198.386,45.444c2.364,2.284,4.519,4.769,6.573,7.328
					c2.063,2.553,3.988,5.216,5.824,7.938c0.916,1.362,1.784,2.757,2.66,4.145c0.821,1.423,1.698,2.811,2.456,4.269
					c1.597,2.868,3.003,5.845,4.232,8.888l-5.259-8.28c-1.76-2.744-3.531-5.477-5.359-8.172c-1.796-2.717-3.651-5.394-5.507-8.077
					L198.386,45.444z"/>
			</g>
			<path style="fill:#455A64;" d="M197.475,40.882l-2.196-21.522l-2.197,21.522h0c0,0.325,0.214,0.649,0.643,0.897
				c0.858,0.495,2.249,0.495,3.107,0C197.261,41.532,197.476,41.207,197.475,40.882L197.475,40.882z"/>
			<g>
				
					<ellipse transform="matrix(0.9239 -0.3827 0.3827 0.9239 -33.0234 84.2587)" style="fill:#BA68C8;" cx="195.287" cy="125.139" rx="19.523" ry="19.523"/>
				
					<ellipse transform="matrix(0.9239 -0.3827 0.3827 0.9239 -33.0234 84.2587)" style="opacity:0.15;" cx="195.287" cy="125.139" rx="19.523" ry="19.523"/>
				<circle style="fill:#BA68C8;" cx="195.287" cy="127.409" r="19.523"/>
				<path style="opacity:0.2;" d="M202.322,145.621l-6.317-17.355l15.997,9.236c0.132-0.218,0.258-0.44,0.381-0.663l-15.996-9.235
					l18.19-3.207c-0.039-0.253-0.086-0.503-0.134-0.753l-18.189,3.207l11.869-14.144c-0.192-0.168-0.386-0.333-0.584-0.493
					l-11.87,14.146v-18.463c-0.128-0.002-0.254-0.01-0.382-0.01c-0.128,0-0.255,0.007-0.383,0.01v18.463l-11.869-14.146
					c-0.198,0.16-0.392,0.325-0.584,0.493l11.868,14.144l-18.188-3.207c-0.049,0.249-0.095,0.5-0.134,0.753l18.19,3.207
					l-15.995,9.235c0.123,0.223,0.249,0.445,0.381,0.663l15.996-9.235l-6.316,17.355c0.237,0.092,0.477,0.179,0.719,0.261
					l6.316-17.355l6.317,17.355C201.845,145.799,202.085,145.712,202.322,145.621z"/>
				<circle style="fill:#37474F;" cx="195.287" cy="127.409" r="14.102"/>
				<path style="fill:#455A64;" d="M195.287,113.308c-7.335,0-13.358,5.602-14.034,12.761c0.637,7.198,6.674,12.845,14.038,12.845
					c7.336,0,13.358-5.602,14.034-12.761C208.688,118.954,202.651,113.308,195.287,113.308z"/>
				<path style="fill:#E0E0E0;" d="M206.548,123.822c0,2.324-1.884,4.207-4.207,4.207c-2.324,0-4.207-1.884-4.207-4.207
					c0-2.324,1.884-4.207,4.207-4.207C204.665,119.615,206.548,121.499,206.548,123.822z"/>
				<path style="fill:#E0E0E0;" d="M203.918,132.158c0,1.339-1.086,2.425-2.425,2.425c-1.339,0-2.425-1.086-2.425-2.425
					s1.086-2.425,2.425-2.425C202.832,129.733,203.918,130.819,203.918,132.158z"/>
			</g>
			<g>
				<g>
					<path style="fill:#455A64;" d="M203.553,189.407c0.199-4.706-3.563-8.63-8.273-8.63l0,0c-4.71,0-8.472,3.924-8.273,8.63
						c0,0-0.022,3.057,0,3.587l1.857,43.94c0.114,2.696,2.333,4.823,5.031,4.823h2.772c2.698,0,4.917-2.127,5.031-4.823l1.856-43.94
						C203.576,192.464,203.553,189.407,203.553,189.407z"/>
					<path style="fill:#37474F;" d="M196.666,241.756h-2.772c-2.698,0-4.917-2.127-5.031-4.823l-1.857-43.94
						c-0.199-4.706,3.563-8.63,8.273-8.63h0c4.71,0,8.472,3.924,8.273,8.63l-1.857,43.94
						C201.583,239.629,199.364,241.756,196.666,241.756z"/>
				</g>
				<g>
					<path style="fill:#BA68C8;" d="M195.28,271.562L195.28,271.562c-1.34,0-2.436-1.065-2.476-2.404l-2.149-72.814
						c-0.101-2.624,1.999-4.806,4.625-4.806h0c2.626,0,4.726,2.182,4.625,4.806l-2.149,72.814
						C197.717,270.497,196.62,271.562,195.28,271.562z"/>
					<path style="opacity:0.2;" d="M192.804,269.158c0.04,1.339,1.137,2.404,2.476,2.404s2.437-1.065,2.476-2.404l0.271-9.18
						l-0.107-0.287c0,0-0.346,4.269-2.64,3.206c-1.641-0.76-2.649-5.845-2.983-10.903L192.804,269.158z"/>
					<path style="opacity:0.5;fill:#FFFFFF;" d="M199.906,196.344c0.101-2.624-1.999-4.806-4.626-4.806l0,0
						c-0.266,0-0.525,0.028-0.778,0.071c2.828,0.536,3.73,2.265,3.884,9.134c0.162,7.191-0.542,65.438-0.542,65.439L199.906,196.344
						z"/>
				</g>
			</g>
			<g>
				<g>
					<path style="fill:#263238;" d="M233.855,164.17c-1.125-0.637-2.673-0.534-4.404,0.465c-3.578,2.066-6.383,7.163-6.265,11.385
						l1.499,48.47c0.029,1.056,0.427,1.796,1.046,2.141c0.552,0.308,2.549,1.484,3.117,1.798c0.617,0.341,1.452,0.289,2.362-0.236
						l2.696-1.557c1.829-1.056,3.358-3.623,3.415-5.734l1.509-50.57c0.059-2.166-0.653-3.679-1.843-4.36
						C236.46,165.672,234.392,164.474,233.855,164.17z"/>
					<path style="fill:#37474F;" d="M231.209,228.194c-1.829,1.056-3.359,0.201-3.418-1.91l-1.499-48.47
						c-0.118-4.222,2.687-9.319,6.265-11.385c3.578-2.066,6.386-0.318,6.272,3.904l-1.509,50.57
						c-0.057,2.111-1.586,4.678-3.415,5.734L231.209,228.194z"/>
					<path style="fill:#455A64;" d="M233.855,164.173c0.535,0.298,2.608,1.499,3.128,1.797c-1.132-0.65-2.684-0.543-4.428,0.459
						c-2.516,1.453-4.642,4.405-5.644,7.502l-3.113-1.797c1.01-3.09,3.136-6.049,5.652-7.502
						C231.186,163.637,232.73,163.53,233.855,164.173z"/>
				</g>
				<g>
					<path style="fill:#BA68C8;" d="M238.48,177.022l-2.816-1.626l-3.106,1.794V256.3c3.266,1.885,6.303,1.975,8.752,0.555
						c0.516-0.299,2.57-1.485,3.084-1.781c3.072-1.764,5.221-5.895,5.736-11.843l2.816-32.584
						C254.05,197.873,247.261,182.092,238.48,177.022z"/>
					<g style="opacity:0.2;">
						<path style="fill:#FFFFFF;" d="M238.48,177.022l-2.816-1.626l-3.106,1.794V256.3c3.266,1.885,6.303,1.975,8.752,0.555
							c0.516-0.299,2.57-1.485,3.084-1.781c3.072-1.764,5.221-5.895,5.736-11.843l2.816-32.584
							C254.05,197.873,247.261,182.092,238.48,177.022z"/>
					</g>
					<path style="fill:#BA68C8;" d="M232.557,256.3L232.557,256.3V177.19l2.817,1.626c8.781,5.07,15.57,20.851,14.466,33.625
						l-2.817,32.584C246.1,255.71,239.902,260.54,232.557,256.3z"/>
					<path style="opacity:0.2;" d="M232.557,256.3L232.557,256.3V177.19l2.817,1.626c8.781,5.07,15.57,20.851,14.466,33.625
						l-2.817,32.584C246.1,255.71,239.902,260.54,232.557,256.3z"/>
					<path style="opacity:0.2;" d="M247.102,244.121c-0.451,5.209-5.626,7.219-9.38,3.233c-3.747-3.979-5.159-9.168-5.164-25.243
						V256.3c7.344,4.24,13.542-0.591,14.466-11.275L247.102,244.121z"/>
				</g>
			</g>
			<g>
				<g>
					<path style="fill:#263238;" d="M156.719,164.17c1.125-0.637,2.673-0.534,4.404,0.465c3.578,2.066,6.383,7.163,6.265,11.385
						l-1.499,48.47c-0.029,1.056-0.427,1.796-1.046,2.141c-0.552,0.308-2.549,1.484-3.117,1.798
						c-0.617,0.341-1.452,0.289-2.362-0.236l-2.696-1.557c-1.829-1.056-3.358-3.623-3.415-5.734l-1.509-50.57
						c-0.059-2.166,0.653-3.679,1.843-4.36C154.114,165.672,156.181,164.474,156.719,164.17z"/>
					<path style="fill:#37474F;" d="M159.365,228.194c1.829,1.056,3.359,0.201,3.418-1.91l1.499-48.47
						c0.118-4.222-2.687-9.319-6.265-11.385c-3.578-2.066-6.386-0.318-6.272,3.904l1.509,50.57c0.057,2.111,1.586,4.678,3.415,5.734
						L159.365,228.194z"/>
					<path style="fill:#455A64;" d="M156.719,164.173c-0.535,0.298-2.608,1.499-3.128,1.797c1.132-0.65,2.684-0.543,4.428,0.459
						c2.516,1.453,4.642,4.405,5.644,7.502l3.113-1.797c-1.009-3.09-3.136-6.049-5.652-7.502
						C159.388,163.637,157.844,163.53,156.719,164.173z"/>
				</g>
				<g>
					<path style="fill:#BA68C8;" d="M152.093,177.022l2.816-1.626l3.107,1.794V256.3c-3.266,1.885-6.303,1.975-8.752,0.555
						c-0.516-0.299-2.57-1.485-3.084-1.781c-3.072-1.764-5.221-5.895-5.736-11.843l-2.816-32.584
						C136.523,197.873,143.312,182.092,152.093,177.022z"/>
					<g style="opacity:0.2;">
						<path style="fill:#FFFFFF;" d="M152.093,177.022l2.816-1.626l3.107,1.794V256.3c-3.266,1.885-6.303,1.975-8.752,0.555
							c-0.516-0.299-2.57-1.485-3.084-1.781c-3.072-1.764-5.221-5.895-5.736-11.843l-2.816-32.584
							C136.523,197.873,143.312,182.092,152.093,177.022z"/>
					</g>
					<path style="fill:#BA68C8;" d="M158.016,256.3L158.016,256.3V177.19l-2.816,1.626c-8.781,5.07-15.57,20.851-14.466,33.625
						l2.817,32.584C144.474,255.71,150.672,260.54,158.016,256.3z"/>
					<path style="opacity:0.2;" d="M158.016,256.3L158.016,256.3V177.19l-2.816,1.626c-8.781,5.07-15.57,20.851-14.466,33.625
						l2.817,32.584C144.474,255.71,150.672,260.54,158.016,256.3z"/>
					<path style="opacity:0.2;" d="M143.472,244.121c0.451,5.209,5.626,7.219,9.38,3.233c3.747-3.979,5.159-9.168,5.164-25.243
						V256.3c-7.344,4.24-13.542-0.591-14.466-11.275L143.472,244.121z"/>
				</g>
			</g>
		</g>
	</g>
</g>
</svg>
